<svg width="507" height="417" viewBox="0 0 507 417" fill="none" xmlns="http://www.w3.org/2000/svg">
<path d="M198.167 19.6556C195.414 8.62405 189.678 5.68733 188.215 3.61137C187.612 2.69686 187.077 1.74626 186.615 0.766106C186.538 1.74611 186.396 2.36351 185.479 3.10667C183.639 4.59791 175.821 10.3864 175.163 22.9206C174.55 34.6071 184.618 41.8134 185.948 42.5582C186.971 43.0155 188.217 42.568 188.825 42.1482C193.678 39.1216 200.309 31.053 198.172 19.6556" fill="#10AA50"/>
<path d="M187.032 36.3351C186.779 39.2278 186.597 40.9084 185.954 42.5614C185.954 42.5614 186.376 45.3152 186.673 48.2323H187.723C187.973 46.1781 188.355 44.139 188.868 42.1253C187.509 41.5177 187.085 38.8733 187.032 36.3351Z" fill="#B8C4C2"/>
<path d="M188.866 42.127C187.493 41.5504 187.095 38.8505 187.034 36.3352C187.374 32.1859 187.473 28.0233 187.331 23.8647C187.259 21.6826 187.365 3.6538 186.739 1.01434C187.167 1.9083 187.66 2.77534 188.215 3.6097C189.678 5.68728 195.416 8.62405 198.167 19.6556C200.309 31.0334 193.714 39.0808 188.866 42.127Z" fill="#12924F"/>
<path d="M369.881 38.1383C369.293 38.1382 368.719 37.9802 368.229 37.6841C367.74 37.388 367.357 36.967 367.13 36.474C366.904 35.981 366.842 35.4382 366.954 34.9136C367.066 34.389 367.346 33.9062 367.759 33.5258C368.172 33.1454 368.699 32.8843 369.275 32.7756C369.85 32.6668 370.449 32.7151 370.994 32.9145C371.54 33.1139 372.008 33.4553 372.341 33.8959C372.674 34.3366 372.855 34.8567 372.864 35.391C372.874 35.7512 372.805 36.1097 372.659 36.445C372.514 36.7802 372.295 37.0853 372.017 37.3418C371.738 37.5984 371.405 37.8012 371.038 37.9381C370.672 38.0749 370.278 38.143 369.881 38.1383ZM369.881 32.9639C369.344 32.9606 368.818 33.1023 368.369 33.3711C367.921 33.6399 367.57 34.0235 367.362 34.4735C367.153 34.9235 367.097 35.4196 367.199 35.8989C367.301 36.3782 367.557 36.8192 367.935 37.166C368.313 37.5128 368.796 37.7498 369.323 37.8471C369.849 37.9443 370.396 37.8973 370.893 37.7122C371.39 37.527 371.816 37.2119 372.116 36.8068C372.416 36.4018 372.576 35.9249 372.578 35.4368C372.585 35.1122 372.52 34.7897 372.387 34.4883C372.255 34.1869 372.057 33.9128 371.805 33.6821C371.554 33.4515 371.254 33.2691 370.924 33.1458C370.593 33.0224 370.239 32.9605 369.881 32.9639ZM370.6 37.1419L369.831 35.6344H369.211V37.1419H368.76V33.7119H369.872C370.701 33.7119 371.046 34.0386 371.046 34.6707C371.046 35.1738 370.786 35.4874 370.3 35.5838L371.095 37.1371L370.6 37.1419ZM369.229 35.28H369.881C370.41 35.28 370.611 35.1166 370.611 34.6789C370.611 34.2412 370.419 34.0925 369.824 34.0925H369.229V35.28Z" fill="#21313C"/>
<path d="M325.498 35.6687C326.305 36.2551 327.918 36.4968 329.339 36.4968C331.182 36.4968 332.989 36.1865 334.754 34.7377C336.551 33.253 337.788 30.981 337.788 27.3534C337.788 23.8679 336.328 21.0389 333.334 19.3827C331.644 18.4174 329.455 18.0369 326.958 18.0369C326.239 18.0369 325.498 18.0712 325.077 18.2443C324.905 18.368 324.783 18.5405 324.731 18.7343C324.655 19.355 324.655 24.0818 324.655 26.8765C324.655 29.7413 324.655 33.7365 324.731 34.2265C324.77 34.6413 325 35.3698 325.498 35.6752V35.6687ZM317.833 16.4852C318.486 16.4852 320.966 16.5881 322.12 16.5881C324.278 16.5881 325.768 16.4852 329.8 16.4852C333.179 16.4852 336.023 17.3133 338.056 18.8993C340.515 20.8331 341.831 23.5232 341.831 26.8013C341.831 31.4596 339.494 34.1513 337.145 35.6687C334.808 37.2563 331.768 38.153 327.438 38.153C325.133 38.153 321.177 38.0844 317.875 38.0501H317.806C317.652 37.7741 318.088 36.6977 318.358 36.6699C319.257 36.5785 319.494 36.5458 319.908 36.3906C320.605 36.1309 320.769 35.8075 320.846 34.6691C320.961 32.5294 320.923 29.9765 320.923 27.0774C320.923 25.0079 320.961 20.9703 320.885 19.6931C320.769 18.6249 320.273 18.3488 319.268 18.1414C318.555 18.0039 317.835 17.9003 317.111 17.8311C317.035 17.6236 317.625 16.6877 317.817 16.4852" fill="#21313C"/>
<path d="M351.349 18.2361C351.196 18.2704 351.004 18.6167 351.004 18.7882C350.964 20.0311 350.927 23.2733 350.927 25.5159C350.936 25.5587 350.96 25.5981 350.994 25.6289C351.028 25.6597 351.072 25.6806 351.119 25.689C351.617 25.7233 352.846 25.7592 353.884 25.7592C355.343 25.7592 356.188 25.5861 356.648 25.3787C357.878 24.8266 358.446 23.6179 358.446 22.308C358.446 19.3059 356.141 18.1675 352.724 18.1675C352.262 18.1622 351.8 18.1852 351.342 18.2361H351.349ZM360.06 32.0378C360.06 29.0014 357.601 27.2766 353.107 27.2766C352.917 27.2766 351.489 27.2423 351.15 27.3109C351.034 27.3452 350.919 27.4138 350.919 27.4841C350.919 29.658 350.88 33.1419 350.997 34.5221C351.074 35.1085 351.536 35.9365 352.109 36.1783C352.724 36.4886 354.107 36.5572 355.066 36.5572C357.716 36.5572 360.06 35.213 360.06 32.0378ZM344.41 16.5456C344.757 16.5456 345.778 16.6485 348.39 16.6485C350.848 16.6485 352.845 16.5799 355.221 16.5799C358.178 16.5799 362.248 17.5468 362.248 21.5485C362.248 23.5085 360.713 25.1026 358.715 25.8621C358.6 25.8964 358.6 25.965 358.715 25.9993C361.557 26.6527 364.053 28.2419 364.053 31.2783C364.053 34.2461 362.018 36.1097 359.061 37.2824C357.263 38.0076 355.029 38.2477 352.769 38.2477C351.042 38.2477 346.411 38.0844 343.837 38.1105C343.567 38.0076 344.083 36.9018 344.313 36.7303C344.903 36.7139 345.488 36.6305 346.055 36.4821C346.976 36.2763 347.085 36.0068 347.2 34.7638C347.278 33.694 347.278 29.8638 347.278 27.1378C347.278 23.4105 347.317 20.8935 347.278 19.6506C347.24 18.6853 346.855 18.3733 346.125 18.2018C345.55 18.0973 344.59 17.9944 343.823 17.8915C343.63 17.7184 344.222 16.6828 344.412 16.5456" fill="#21313C"/>
<path d="M206.671 38.1384C206.572 37.9175 206.532 37.6786 206.554 37.4409C206.545 37.279 206.586 37.118 206.671 36.9754C207.168 36.9104 207.66 36.8193 208.145 36.7027C208.824 36.5492 209.08 36.2127 209.119 35.4254C209.231 33.565 209.238 30.0746 209.198 27.6213V27.5495C209.198 27.2849 209.198 26.9255 208.839 26.6724C208.207 26.3122 207.521 26.0371 206.802 25.8557C206.48 25.7691 206.302 25.6156 206.311 25.4359C206.32 25.2563 206.524 25.0439 206.942 24.9688C208.055 24.8659 210.971 24.2338 212.116 23.7536C212.234 23.8932 212.288 24.0686 212.269 24.2436C212.269 24.3514 212.251 24.4657 212.238 24.5833C212.206 24.9296 212.17 25.3232 212.17 25.7152C212.177 25.7629 212.198 25.8078 212.232 25.8449C212.265 25.882 212.31 25.9098 212.36 25.9253C212.41 25.9407 212.464 25.9431 212.515 25.9323C212.567 25.9215 212.614 25.8978 212.651 25.8639C214.832 24.3106 216.786 23.7569 217.787 23.7569C219.435 23.7569 220.719 24.4723 221.713 25.9455C221.736 25.9811 221.768 26.0108 221.807 26.0316C221.846 26.0526 221.891 26.0639 221.936 26.0648C221.977 26.0645 222.018 26.0551 222.054 26.0374C222.09 26.0198 222.121 25.9945 222.144 25.9635C224.149 24.5817 226.135 23.7569 227.465 23.7569C230.607 23.7569 232.486 25.8949 232.486 29.4735C232.486 30.5025 232.475 31.8076 232.464 33.0244C232.455 34.0926 232.446 35.0938 232.446 35.7864C232.446 35.9497 232.694 36.4201 233.066 36.5132C233.526 36.7174 234.19 36.8219 235.029 36.9526H235.062C235.124 37.1584 234.991 37.9571 234.864 38.1204C234.655 38.1204 234.368 38.1041 234.008 38.0877C233.356 38.0583 232.46 38.0175 231.42 38.0175C229.331 38.0175 228.24 38.0534 227.197 38.1155C227.118 37.8787 227.091 37.1143 227.186 36.9542C227.618 36.8929 228.046 36.8084 228.466 36.701C229.131 36.5018 229.324 36.2274 229.365 35.4254C229.381 34.8554 229.502 29.8329 229.288 28.6405C229.09 27.4041 228.065 25.957 225.824 25.957C224.992 25.957 223.649 26.2722 222.369 27.1542C222.29 27.236 222.245 27.3408 222.243 27.4498V27.4743C222.394 28.1179 222.394 28.8692 222.394 30.0044C222.394 30.6577 222.394 31.3388 222.385 32.0199C222.376 33.405 222.369 34.7116 222.394 35.6998C222.394 36.3727 222.842 36.5344 223.203 36.6635C223.399 36.7027 223.554 36.737 223.71 36.7696C224.01 36.8366 224.323 36.9052 224.788 36.9722C224.857 37.2592 224.851 37.5567 224.77 37.8411C224.751 37.9479 224.705 38.0491 224.636 38.1367C223.475 38.1008 222.283 38.0698 220.563 38.0698C220.041 38.0698 219.191 38.0894 218.44 38.1074C217.83 38.1221 217.255 38.1368 216.928 38.1384C216.839 37.9487 216.8 37.743 216.813 37.5373C216.794 37.3435 216.836 37.1489 216.933 36.9754L217.395 36.8987C217.798 36.8333 218.147 36.7778 218.474 36.7027C219.042 36.5394 219.256 36.2584 219.297 35.6002C219.409 34.0649 219.495 29.6401 219.256 28.5327C218.849 26.7557 217.737 25.8541 215.946 25.8541C214.898 25.8541 213.574 26.313 212.491 27.0497C212.387 27.1418 212.305 27.2524 212.251 27.3747C212.196 27.497 212.17 27.6283 212.173 27.7602C212.173 28.2877 212.173 28.9149 212.173 29.5879C212.173 31.8092 212.157 34.5744 212.216 35.77C212.252 36.1392 212.396 36.5769 213.157 36.737C213.324 36.7811 213.611 36.8235 213.946 36.8742C214.138 36.9036 214.348 36.9346 214.566 36.9706C214.635 37.3617 214.6 37.7622 214.463 38.1384C214.129 38.1384 213.717 38.1188 213.246 38.1008C212.527 38.0714 211.629 38.0355 210.613 38.0355C209.412 38.0355 208.576 38.0714 207.906 38.1008C207.455 38.1204 207.065 38.1368 206.675 38.1384" fill="#21313C"/>
<path d="M245.22 25.2334C244.571 25.2212 243.933 25.3843 243.387 25.7022C242.053 26.4388 241.373 27.9105 241.373 30.073C241.373 34.1204 243.604 36.9477 246.798 36.9477C247.655 36.9724 248.49 36.7036 249.139 36.1947C250.12 35.4679 250.642 33.9816 250.642 31.9007C250.642 27.9137 248.461 25.2334 245.217 25.2334H245.22ZM245.831 38.4487C240.061 38.4487 238.007 34.6022 238.007 31.004C238.007 28.4903 239.137 26.5254 241.368 25.1616C242.93 24.2826 244.724 23.8009 246.561 23.7667C250.963 23.7667 254.039 26.643 254.039 30.7639C254.039 33.5634 252.811 35.7749 250.487 37.1567C249.371 37.7774 247.431 38.4487 245.831 38.4487Z" fill="#21313C"/>
<path d="M303.965 25.2334C303.315 25.22 302.675 25.3832 302.128 25.7022C300.794 26.4388 300.115 27.9105 300.115 30.073C300.115 34.1204 302.345 36.9477 305.54 36.9477C306.399 36.974 307.237 36.7052 307.887 36.1947C308.869 35.4679 309.388 33.9816 309.388 31.9007C309.388 27.9137 307.21 25.2334 303.965 25.2334ZM304.58 38.4487C298.809 38.4487 296.755 34.6022 296.755 31.0056C296.755 28.4886 297.886 26.5254 300.118 25.1616C301.68 24.2821 303.473 23.8003 305.31 23.7667C309.712 23.7667 312.787 26.6446 312.787 30.7623C312.787 33.5651 311.56 35.7749 309.235 37.1551C308.119 37.7774 306.18 38.4487 304.58 38.4487Z" fill="#21313C"/>
<path d="M284.537 25.0962C282.759 25.0962 281.608 26.3718 281.608 28.3466C281.608 30.3213 282.599 32.6683 285.383 32.6683C285.862 32.6683 286.728 32.4756 287.158 32.0461C287.805 31.5054 288.236 30.3882 288.236 29.2089C288.236 26.6332 286.856 25.0962 284.546 25.0962H284.537ZM284.316 38.7247C283.813 38.7198 283.318 38.8323 282.878 39.0514C281.47 39.8681 280.818 40.6847 280.818 41.6337C280.818 42.5222 281.197 43.2295 282.013 43.8567C283.002 44.6178 284.335 44.9886 286.088 44.9886C289.538 44.9886 291.084 43.303 291.084 41.6337C291.084 40.4708 290.442 39.6917 289.121 39.2507C288.103 38.9126 286.403 38.7264 284.321 38.7264L284.316 38.7247ZM284.551 46.7297C282.48 46.7297 280.988 46.3328 279.714 45.441C278.474 44.5721 277.916 43.2818 277.916 42.39C277.93 41.8153 278.171 41.2643 278.596 40.8383C278.955 40.4659 279.791 39.7685 281.724 38.5614C281.753 38.5499 281.779 38.5305 281.797 38.5058C281.815 38.4811 281.824 38.4522 281.824 38.4226C281.825 38.3896 281.813 38.3574 281.791 38.3312C281.769 38.3051 281.737 38.2866 281.702 38.2789C280.111 37.7252 279.631 36.8089 279.486 36.3189C279.486 36.3009 279.486 36.2731 279.469 36.2421C279.424 36.0494 279.381 35.8664 279.671 35.6786C279.894 35.5348 280.25 35.3421 280.631 35.1379C281.169 34.8674 281.685 34.5622 282.175 34.2249C282.201 34.1992 282.221 34.1683 282.232 34.1347C282.243 34.1011 282.246 34.0655 282.239 34.0308C282.233 33.9962 282.218 33.9633 282.196 33.9346C282.173 33.9059 282.144 33.8824 282.11 33.8656C279.755 33.1469 278.569 31.5577 278.569 29.1289C278.562 28.3716 278.755 27.6238 279.134 26.9491C279.513 26.2743 280.065 25.6925 280.744 25.253C281.691 24.5719 284.069 23.7536 285.61 23.7536H285.7C287.283 23.7879 288.177 24.0901 289.414 24.5049C290.117 24.7361 290.863 24.8436 291.61 24.8218C292.921 24.8218 293.494 24.4445 293.987 24.0051C294.066 24.2031 294.109 24.4118 294.112 24.6225C294.143 25.1247 293.992 25.6223 293.685 26.0403C293.417 26.3784 292.786 26.6234 292.209 26.6234C292.149 26.6234 292.092 26.6234 292.029 26.6152C291.725 26.5958 291.424 26.5504 291.13 26.4796L290.983 26.527C290.936 26.5891 290.967 26.6577 291.004 26.7459C291.014 26.7632 291.021 26.7812 291.026 26.7998C291.131 27.2357 291.203 27.6778 291.24 28.1228C291.24 30.6626 290.138 31.7684 288.946 32.5883C287.794 33.3739 286.426 33.8554 284.992 33.9799C284.961 33.9799 284.812 33.9914 284.531 34.0142C284.352 34.0289 284.118 34.0485 284.084 34.0485H284.05C283.791 34.1139 283.115 34.4062 283.115 34.9501C283.115 35.4009 283.42 35.9612 284.882 36.0624L285.827 36.1229C287.754 36.2454 290.161 36.3972 291.294 36.7451C292.045 36.9852 292.694 37.4343 293.148 38.0288C293.602 38.6231 293.838 39.3325 293.823 40.0559C293.823 42.3344 292.04 44.4773 289.054 45.7873C287.646 46.3984 286.104 46.7127 284.544 46.7069" fill="#21313C"/>
<path d="M275.718 36.9232C274.873 36.8203 274.256 36.7157 273.528 36.4054C273.386 36.2709 273.291 36.0999 273.259 35.9154C273.181 34.8456 273.181 31.7406 273.181 29.7087C273.181 28.0509 272.876 26.6054 272.103 25.5682C271.181 24.3939 269.876 23.7046 268.186 23.7046C266.689 23.7046 264.691 24.6356 263.041 25.9129C263.002 25.9472 262.748 26.166 262.754 25.8263C262.759 25.4866 262.817 24.7973 262.853 24.3563C262.869 24.2391 262.854 24.1202 262.81 24.009C262.767 23.8978 262.695 23.7975 262.601 23.716C261.522 24.206 258.497 24.8594 257.377 24.959C256.561 25.1027 256.354 25.8165 257.226 26.0631H257.239C257.937 26.238 258.603 26.5043 259.216 26.8537C259.561 27.0954 259.523 27.44 259.523 27.7161C259.561 30.0272 259.561 33.5814 259.446 35.5136C259.408 36.2731 259.177 36.5491 258.562 36.688L258.619 36.67C258.151 36.7766 257.676 36.8573 257.197 36.9117C257.005 37.0832 257.005 38.0845 257.197 38.2919C257.582 38.2919 259.534 38.189 261.152 38.189C263.377 38.189 264.53 38.2919 265.107 38.2919C265.339 38.0502 265.414 37.1192 265.261 36.9117C264.73 36.8899 264.202 36.8204 263.685 36.7043C263.072 36.5671 262.917 36.2894 262.88 35.6704C262.804 34.0469 262.804 30.5973 262.804 28.2502C262.804 27.5968 262.995 27.2849 263.225 27.1068C263.992 26.4862 265.261 26.0729 266.374 26.0729C267.453 26.0729 268.172 26.3833 268.711 26.7965C269.339 27.2945 269.733 27.9926 269.811 28.7467C269.964 30.0534 269.924 32.6814 269.924 34.9534C269.924 36.1963 269.811 36.5083 269.311 36.6455C269.081 36.7484 268.466 36.8529 267.737 36.9215C267.507 37.129 267.582 38.0943 267.737 38.3017C268.734 38.3017 269.894 38.1988 271.576 38.1988C273.688 38.1988 275.033 38.3017 275.57 38.3017C275.801 38.06 275.878 37.1584 275.725 36.9215" fill="#21313C"/>
<path opacity="0.54" d="M443.995 249.48L445.866 246.24L468.091 259.072L459.596 273.786L456.865 272.21L463.49 260.735L456.193 256.523L450.218 266.872L447.55 265.332L453.526 254.982L443.995 249.48L443.995 249.48ZM452.88 278.032C452.642 276.865 453.235 275.59 454.296 274.987C455.356 274.385 456.59 274.622 457.241 275.555C457.892 276.488 457.78 277.855 456.972 278.821C456.165 279.787 454.888 280.082 453.922 279.525C453.379 279.225 453.002 278.683 452.881 278.029L452.88 278.032ZM433.853 267.047L435.724 263.807L450.933 272.588L449.063 275.828L433.853 267.047L433.853 267.047ZM429.748 274.157L431.619 270.917L446.828 279.698L445.04 282.795L442.557 281.361L442.476 281.502C443.135 282.381 443.448 283.519 443.357 284.709C443.346 285.89 443.032 287.08 442.446 288.151C441.988 288.993 441.384 289.745 440.67 290.364L438.714 287.592C439.198 287.13 439.609 286.589 439.928 285.993C440.609 284.802 440.816 283.414 440.5 282.169C440.204 280.793 439.394 279.722 438.07 278.958L429.748 274.157L429.748 274.157ZM419.85 290.181C421.354 287.575 423.342 285.899 425.814 285.153C428.286 284.407 430.689 284.706 433.021 286.05C435.148 287.214 436.696 289.239 437.36 291.724C438.055 294.138 437.645 296.878 436.245 299.178C434.768 301.735 432.851 303.359 430.493 304.049C428.136 304.739 425.726 304.373 423.265 302.948L422.757 302.608L430.625 288.98C429.04 288.189 427.492 288.07 425.981 288.623C424.539 289.123 423.28 290.194 422.483 291.601C421.142 293.925 421.103 295.999 422.367 297.824L419.644 300.102C418.78 298.823 418.308 297.264 418.286 295.611C418.247 293.865 418.768 292.054 419.85 290.18L419.85 290.181ZM427.109 300.57C428.019 301.002 429.107 301.028 430.375 300.648C431.642 300.267 432.743 299.248 433.678 297.593C434.355 296.461 434.641 295.147 434.483 293.902C434.306 292.592 433.739 291.42 432.862 290.55L427.109 300.57L427.109 300.57ZM408.416 309.984C409.103 308.746 410.053 307.678 411.18 306.878C412.156 306.168 413.266 305.731 414.394 305.613L414.474 305.473L412.369 304.257L414.159 301.158L436.385 313.989L434.514 317.23L427.498 313.179L425.469 311.821L425.388 311.961C425.85 312.996 426.026 314.176 425.9 315.377C425.777 316.754 425.333 318.114 424.608 319.333C423.321 321.562 421.434 323.039 418.946 323.764C416.458 324.489 414.066 324.188 411.77 322.859C409.473 321.531 408.015 319.612 407.398 317.097C406.78 314.582 407.12 312.211 408.416 309.984L408.416 309.984ZM411.328 310.961C410.466 312.431 410.2 314.158 410.598 315.703C410.979 317.363 411.997 318.671 413.652 319.626C415.308 320.582 416.949 320.81 418.577 320.31C420.109 319.864 421.466 318.773 422.32 317.301C423.174 315.829 423.446 314.109 423.073 312.556C422.696 310.916 421.67 309.612 419.993 308.644C418.317 307.676 416.667 307.442 415.043 307.943C413.506 308.378 412.147 309.479 411.31 310.965L411.328 310.961L411.328 310.961ZM398.917 326.437C399.976 324.604 401.326 323.341 402.966 322.65C404.606 321.96 406.193 322.054 407.726 322.935C409.382 323.89 410.26 325.368 410.36 327.367C410.461 329.366 409.895 331.433 408.662 333.567C407.565 335.469 406.354 336.848 405.032 337.705L405.466 337.956C406.461 338.592 407.724 338.683 408.903 338.202C410.089 337.704 411.103 336.767 411.746 335.579C412.273 334.689 412.579 333.689 412.631 332.686C412.695 331.755 412.443 330.868 411.921 330.186L414.746 327.875C415.428 328.802 415.821 330.078 415.923 331.705C416.024 333.334 415.519 335.103 414.403 337.026C413.133 339.226 411.508 340.733 409.53 341.546C407.551 342.36 405.527 342.162 403.457 340.953L394.252 335.638L396.046 332.53L398.156 333.748L398.237 333.608C397.254 331.316 397.483 328.929 398.918 326.443L398.917 326.437ZM401.219 328.47C400.438 329.834 400.151 331.411 400.421 332.872C400.594 334.363 401.386 335.625 402.587 336.323C403.779 335.789 404.904 334.605 405.963 332.771C406.871 331.198 407.256 329.839 407.116 328.696C407.042 327.66 406.519 326.77 405.697 326.281C404.986 325.85 404.07 325.88 403.292 326.36C402.434 326.842 401.707 327.575 401.207 328.464L401.219 328.471L401.219 328.47ZM388.267 344.884C389.378 342.959 390.71 341.608 392.262 340.832C393.761 340.07 395.383 339.739 396.954 339.873L396.341 343.371C393.908 343.188 392.056 344.197 390.785 346.397C390.249 347.253 389.956 348.236 389.945 349.213C389.927 350.013 390.304 350.719 390.939 351.077C391.931 351.65 393.058 351.252 394.321 349.878L397.077 346.823C398.007 345.831 399.105 345.041 400.297 344.506C401.533 343.916 402.896 343.969 403.96 344.647C405.305 345.423 406.007 346.728 406.065 348.561C406.104 350.466 405.573 352.402 404.547 354.092C403.742 355.533 402.611 356.758 401.271 357.643C400.006 358.477 398.555 358.849 397.164 358.697L397.775 355.298C399.485 355.442 400.917 354.515 402.07 352.518C402.585 351.684 402.887 350.737 402.943 349.784C403.016 349.02 402.684 348.322 402.084 347.975C401.214 347.473 400.183 347.895 398.992 349.241L396.306 352.242C395.048 353.674 393.791 354.545 392.535 354.854C391.346 355.169 390.136 355.021 389.134 354.438C387.786 353.68 386.926 352.244 386.817 350.566C386.633 348.771 387.117 346.876 388.269 344.881L388.267 344.884ZM378.206 362.311C379.71 359.705 381.698 358.029 384.17 357.283C386.642 356.537 389.049 356.838 391.389 358.187C393.516 359.351 395.064 361.376 395.728 363.861C396.416 366.278 396 369.018 394.596 371.315C393.114 373.882 391.197 375.507 388.844 376.187C386.492 376.868 384.082 376.501 381.616 375.087L381.108 374.746L388.983 361.106C387.398 360.316 385.85 360.197 384.338 360.75C382.894 361.253 381.636 362.329 380.84 363.74C379.499 366.063 379.461 368.137 380.724 369.962L378.002 372.241C377.137 370.961 376.665 369.402 376.644 367.749C376.601 366.001 377.122 364.188 378.206 362.31L378.206 362.311ZM385.465 372.7C386.375 373.132 387.463 373.158 388.731 372.777C389.998 372.397 391.098 371.38 392.03 369.728C392.707 368.596 392.994 367.282 392.835 366.038C392.658 364.727 392.091 363.555 391.214 362.685L385.465 372.7L385.465 372.7Z" fill="black"/>
<path d="M472.127 196.814L502.55 222.322C502.924 222.635 503.041 223.188 502.842 223.695C502.643 224.202 502.172 224.55 501.673 224.559L487.908 224.827L490.643 229.681C490.855 230.056 490.839 230.548 490.603 230.956C490.367 231.365 489.95 231.623 489.519 231.628L451.8 232.021L472.127 196.814L472.127 196.814Z" fill="#FFA000"/>
<path d="M473.435 225.012L487.914 224.827L472.127 196.814L473.435 225.012Z" fill="#F57C00"/>
<path d="M451.8 232.021L479.517 241.939C479.917 242.078 480.38 241.96 480.717 241.632C481.055 241.305 481.21 240.822 481.12 240.382L472.127 196.814L454.999 208.16C453.926 208.874 453.223 210.091 453.141 211.378L451.8 232.021L451.8 232.021Z" fill="#FFCA28"/>
<path d="M479.516 241.939C479.916 242.078 480.379 241.959 480.717 241.632C481.055 241.304 481.209 240.822 481.119 240.382L479.33 231.732L489.52 231.625C489.951 231.621 490.368 231.362 490.604 230.953C490.84 230.545 490.856 230.054 490.644 229.678L487.909 224.824L501.674 224.556C502.173 224.546 502.644 224.198 502.843 223.69C503.042 223.182 502.923 222.63 502.549 222.318L472.126 196.814L472.137 196.794L472.107 196.802L471.948 196.92L480.874 240.229C480.966 240.67 480.811 241.154 480.473 241.483C480.135 241.811 479.671 241.93 479.27 241.789L451.801 231.963L451.8 232.021L479.516 241.939L479.516 241.939ZM472.143 196.893L502.308 222.182C502.682 222.494 502.8 223.047 502.602 223.555C502.403 224.062 501.932 224.411 501.432 224.421L487.668 224.688L490.403 229.542C490.615 229.918 490.599 230.409 490.363 230.817C490.127 231.226 489.71 231.485 489.279 231.49L479.303 231.598L472.143 196.892L472.143 196.893Z" fill="white" fill-opacity="0.2"/>
<path opacity="0.2" d="M453.381 211.516C453.462 210.23 454.165 209.012 455.239 208.298L472.322 196.978L472.127 196.814L455.001 208.161C453.928 208.875 453.225 210.093 453.143 211.379L451.8 232.021L452.049 232.11L453.38 211.516L453.381 211.516Z" fill="#A52714"/>
<path d="M479.538 241.891C479.938 242.03 480.4 241.912 480.736 241.586C481.073 241.259 481.227 240.779 481.137 240.339L479.339 231.711L489.516 231.619C489.946 231.614 490.363 231.357 490.598 230.95C490.833 230.543 490.848 230.053 490.636 229.678L487.898 224.833L501.646 224.585C502.145 224.576 502.615 224.229 502.812 223.723C503.01 223.217 502.891 222.665 502.517 222.354L472.097 196.879L455.008 208.172C453.936 208.883 453.236 210.096 453.156 211.379L451.841 231.963L479.538 241.891L479.538 241.891Z" fill="url(#paint0_linear)"/>
<g clip-path="url(#clip0)">
<path fill-rule="evenodd" clip-rule="evenodd" d="M49.4836 302.708C49.5542 302.827 49.651 302.933 49.7711 303.007C50.0113 303.153 50.3033 303.164 50.5336 303.031L67.0461 293.498C67.2084 293.404 67.4004 293.402 67.569 293.506C67.7378 293.61 67.8446 293.795 67.8505 293.993L67.9731 297.795C67.991 298.361 68.2965 298.89 68.7781 299.189L81.6881 307.194C82.1704 307.492 82.7696 307.498 83.2343 307.23L95.6673 300.052C96.1318 299.784 96.4048 299.274 96.3875 298.707L95.9105 283.524C95.8925 282.957 95.588 282.429 95.1055 282.13L82.1955 274.126C81.7128 273.827 81.1353 273.809 80.6708 274.077L49.6747 291.973C49.2032 292.245 48.9204 292.777 48.9464 293.353L49.3473 302.322C49.3537 302.463 49.4131 302.589 49.4836 302.708L49.4836 302.708ZM108.062 368.327C108.198 368.543 108.353 368.73 108.575 368.867L121.485 376.871C121.966 377.169 122.542 377.191 123.01 376.92L139.682 367.264C139.914 367.13 140.055 366.877 140.042 366.591C140.037 366.307 139.883 366.04 139.639 365.894L131.999 361.136C131.507 360.839 130.925 360.796 130.461 361.064L122.669 365.563C122.204 365.831 121.625 365.814 121.144 365.514L117.878 363.496C117.635 363.345 117.444 363.143 117.303 362.899C117.165 362.66 117.079 362.382 117.073 362.102L116.959 358.265C116.939 357.698 117.214 357.188 117.679 356.92L125.471 352.421C125.935 352.153 126.19 351.623 126.178 351.053L125.877 342.057C125.872 341.772 125.718 341.505 125.474 341.36C125.237 341.212 124.944 341.202 124.712 341.336L108.013 350.946C107.545 351.216 107.274 351.722 107.293 352.291L107.77 367.473C107.776 367.731 107.861 367.96 107.981 368.188L108.062 368.327L108.062 368.327ZM48.0653 264.061C48.2048 264.304 48.3987 264.508 48.6403 264.658L61.5502 272.663C62.0326 272.962 62.6104 272.98 63.0752 272.712L75.5081 265.534C75.9756 265.264 76.2358 264.735 76.2148 264.166L75.6618 249.15C75.6419 248.596 75.3595 248.068 74.892 247.768L67.263 242.879C67.0213 242.723 66.7221 242.697 66.487 242.831C66.2518 242.965 66.1177 243.218 66.1271 243.503L66.6443 258.756C66.6549 259.041 66.5089 259.33 66.2762 259.464L62.3909 261.707C62.1586 261.841 61.856 261.809 61.615 261.659L57.5798 259.157C57.3394 259.008 57.1864 258.743 57.1773 258.459L57.0275 253.713C57.0185 253.43 57.1551 253.175 57.3874 253.041L60.4526 251.271C60.6852 251.137 60.8217 250.883 60.8124 250.599C60.8032 250.314 60.652 250.051 60.4102 249.902L52.6437 245.123C52.162 244.827 51.5821 244.807 51.1188 245.074L48.1184 246.807C47.655 247.074 47.3817 247.585 47.3985 248.152L47.8353 263.265C47.8437 263.549 47.9254 263.819 48.0651 264.061L48.0653 264.061ZM77.3601 293.367C77.3254 293.306 77.2979 293.227 77.2957 293.156L77.1389 287.949C77.1347 287.808 77.1965 287.669 77.3122 287.602L81.5861 285.134C81.7021 285.067 81.8535 285.083 81.974 285.158L86.4046 287.897C86.5244 287.972 86.6007 288.104 86.6058 288.246L86.7627 293.452C86.7672 293.594 86.7054 293.733 86.5893 293.8L82.3155 296.268C82.1998 296.334 82.0482 296.318 81.9276 296.244L77.4973 293.504C77.4368 293.467 77.3955 293.427 77.3605 293.366L77.3601 293.367Z" fill="#404137"/>
<path fill-rule="evenodd" clip-rule="evenodd" d="M27.7093 229.502C27.9413 229.904 28.2443 230.25 28.6256 230.491L40.8147 238.044C41.6023 238.533 42.5668 238.55 43.3283 238.111L55.049 231.344C55.8101 230.904 56.2768 230.061 56.248 229.134L56.1306 225.391C55.9648 223.636 55.6593 223.129 55.2945 222.497C54.1075 220.441 52.2712 219.937 50.257 221.1L38.6875 227.779C38.5239 227.874 38.4948 228.094 38.5946 228.267L39.3858 229.637C39.4873 229.813 39.6909 229.895 39.8544 229.801L51.424 223.121C52.3168 222.606 53.7923 223.088 53.9759 225.148L54.0738 229.056C54.0814 229.192 54.0342 229.327 53.9223 229.392L42.2015 236.159C42.0903 236.223 41.931 236.208 41.8135 236.135L29.6594 228.592C29.5458 228.522 29.4756 228.4 29.4716 228.267L29.0167 213.97C29.0147 213.833 29.0754 213.689 29.1901 213.622L40.9108 206.856C41.0227 206.791 41.1724 206.785 41.2853 206.856L53.4527 214.422C53.5587 214.486 53.6332 214.615 53.6404 214.747L53.7095 218.456C53.7122 218.566 53.7817 218.678 53.8705 218.735C54.7273 219.275 54.859 219.393 55.5135 219.985C55.675 220.131 55.9226 220.351 55.8917 219.643L55.7796 214.813C55.7657 214.355 55.6337 213.913 55.4029 213.513C55.1689 213.108 54.8547 212.777 54.4651 212.536L42.2975 204.971C41.5061 204.484 40.5451 204.464 39.784 204.904L28.0633 211.671C27.3018 212.111 26.8358 212.953 26.8642 213.881L27.3111 228.214C27.3273 228.662 27.4773 229.1 27.7093 229.502ZM88.0405 333.45C88.18 333.692 88.3746 333.898 88.6156 334.048L101.504 342.064C101.986 342.364 102.586 342.369 103.051 342.101L115.484 334.923C115.948 334.654 116.221 334.145 116.203 333.578L115.726 318.395C115.709 317.827 115.405 317.3 114.922 317.001L102.012 308.997C101.529 308.699 100.952 308.679 100.487 308.948L88.0538 316.126C87.5887 316.394 87.2942 316.916 87.3124 317.484L87.8109 332.654C87.8196 332.937 87.9012 333.209 88.0405 333.45ZM18.6354 213.087L18.9376 212.913L18.4143 212.006L20.6376 210.723L20.4231 210.351L18.1999 211.635L17.6633 210.705L17.3611 210.88L18.6354 213.087ZM17.1731 210.554L19.6986 209.096L19.4976 208.748L18.0082 209.608C17.9474 209.643 17.8517 209.694 17.7277 209.77C17.602 209.848 17.4878 209.908 17.4254 209.945L17.3605 209.982L19.0546 207.981L18.8401 207.61L16.247 208.053C16.3829 207.975 16.5254 207.919 16.649 207.852C16.7678 207.786 16.8558 207.733 16.908 207.703L18.3973 206.843L18.1961 206.494L15.6707 207.953L15.9657 208.463L18.5589 208.02L16.8644 210.02L17.1729 210.554L17.1731 210.554ZM34.3942 221.739C36.1935 224.855 38.497 226 40.5459 224.817C42.7686 223.534 42.3157 221.339 40.8639 218.189C39.1235 214.424 39.4508 213.863 40.1052 213.486C41.2401 212.83 42.2863 213.525 43.6153 215.827C45.285 218.719 44.9812 219.742 43.7674 220.726C43.6386 220.834 43.5916 221.02 43.6829 221.178L44.5011 222.595C44.6019 222.77 44.8284 222.84 44.991 222.746C46.7019 221.758 48.1468 219.588 45.3853 214.805C43.386 211.342 40.9703 210.074 38.7578 211.351C36.5645 212.618 36.9073 214.571 38.4338 218.168C39.976 221.802 39.9586 222.244 39.2202 222.67C38.6106 223.022 37.6372 223.218 36.1857 220.704C34.8895 218.459 34.8603 217.37 36.0704 216.217C36.1853 216.111 36.2183 215.925 36.1335 215.779L35.3153 214.361C35.2648 214.274 35.1663 214.218 35.0731 214.191C34.9766 214.168 34.8824 214.166 34.8035 214.223C32.508 215.841 32.3725 218.237 34.3942 221.739ZM59.1087 257.716C59.1354 257.762 59.1651 257.814 59.2105 257.843L61.707 259.376C61.7995 259.434 61.914 259.442 62.0034 259.391L64.3778 258.02C64.4672 257.968 64.5168 257.865 64.5131 257.756L64.4125 254.84C64.4091 254.73 64.3576 254.641 64.265 254.584L61.7901 253.039C61.6982 252.982 61.5832 252.973 61.4938 253.024L59.1194 254.395C59.03 254.447 58.9808 254.551 58.984 254.659L59.063 257.588C59.064 257.642 59.0819 257.67 59.1087 257.716Z" fill="#83CD29"/>
</g>
<defs>
<linearGradient id="paint0_linear" x1="500.164" y1="211.451" x2="451.708" y2="238.639" gradientUnits="userSpaceOnUse">
<stop stop-color="white" stop-opacity="0.1"/>
<stop offset="0.14" stop-color="white" stop-opacity="0.08"/>
<stop offset="0.61" stop-color="white" stop-opacity="0.02"/>
<stop offset="1" stop-color="white" stop-opacity="0"/>
</linearGradient>
<clipPath id="clip0">
<rect width="200" height="50" fill="white" transform="translate(100 390.205) rotate(-120)"/>
</clipPath>
</defs>
</svg>
