<svg width="471" height="446" viewBox="0 0 471 446" fill="none" xmlns="http://www.w3.org/2000/svg">
<path d="M438 226C438 336.457 348.457 426 238 426C127.543 426 38 336.457 38 226C38 115.543 127.543 26 238 26C348.457 26 438 115.543 438 226Z" fill="white"/>
<g clip-path="url(#clip0)">
<path d="M116.611 97.7611C119.662 102.146 125.688 103.227 130.072 100.176L175.761 68.3891C180.146 65.3384 181.227 59.3117 178.176 54.9276L146.389 9.23915C143.338 4.85431 137.312 3.7734 132.928 6.82361L87.2392 38.6109C82.8543 41.6616 81.7734 47.6883 84.8236 52.0724L116.611 97.7609L116.611 97.7611Z" fill="#563D7C"/>
<path d="M123.777 53.6045L117.712 44.886L125.386 39.5467C126.117 39.038 126.864 38.6086 127.627 38.2584C128.391 37.9079 129.142 37.7075 129.883 37.6576C130.622 37.6079 131.343 37.7523 132.044 38.091C132.744 38.4302 133.397 39.0346 134.003 39.9044C135.092 41.4708 135.409 42.929 134.954 44.2788C134.499 45.6287 133.54 46.8122 132.078 47.8293L123.777 53.6045ZM105.083 44.2194L131.018 81.4952L149.082 68.9276C150.752 67.7652 152.234 66.4244 153.527 64.9049C154.82 63.3854 155.782 61.7609 156.412 60.0311C157.042 58.3015 157.244 56.4947 157.019 54.6116C156.793 52.7281 156.027 50.8468 154.719 48.9674C153.096 46.6353 151.145 45.0364 148.863 44.1702C146.582 43.3039 144.063 43.3393 141.305 44.2762C142.419 42.3135 142.966 40.4087 142.948 38.5624C142.928 36.7163 142.265 34.8536 140.957 32.9739C139.747 31.2337 138.443 29.9718 137.045 29.1879C135.647 28.4043 134.178 28.0188 132.638 28.0318C131.097 28.0446 129.487 28.4029 127.807 29.1069C126.128 29.8105 124.4 30.78 122.625 32.015L105.083 44.2194ZM134.783 69.4231L127.664 59.1906L136.591 52.9795C138.366 51.7445 140.078 51.1605 141.726 51.2279C143.374 51.2952 144.864 52.2857 146.196 54.2C146.874 55.1747 147.265 56.0902 147.37 56.9467C147.476 57.8033 147.377 58.6081 147.074 59.3609C146.772 60.1138 146.309 60.8228 145.688 61.4881C145.065 62.1531 144.354 62.764 143.554 63.321L134.783 69.4231Z" fill="white"/>
</g>
<g clip-path="url(#clip1)">
<path d="M400.127 58.0797L361.865 97.1109L333.766 83.3229L313.031 59.9892L340.426 12.6843L400.127 58.0797Z" fill="#264DE4"/>
<path d="M359.299 90.8216L391.996 57.4678L367.592 38.9121L336.593 79.6804L359.299 90.8216Z" fill="#2965F1"/>
<path d="M338.022 41.6977L334.665 47.502L351.391 60.2196L355.417 54.9246L338.022 41.6977Z" fill="#EBEBEB"/>
<path d="M363.566 44.2072L363.54 44.1876L344.825 29.9569L341.478 35.7686L359.54 49.5023L363.566 44.2072Z" fill="#EBEBEB"/>
<path d="M340.771 74.1855L344.96 68.6764L344.923 68.6577L337.81 60.7361L340.489 56.1085L336.444 53.0329L332.986 50.4036L327.711 59.5138L340.732 74.1661L340.771 74.1855Z" fill="#EBEBEB"/>
<path d="M363.397 11.6351L372.45 18.5182L370.41 21.2001L365.144 17.1954L363.104 19.8773L368.371 23.882L366.332 26.5639L357.28 19.6808L363.397 11.6351Z" fill="black"/>
<path d="M374.26 19.8949L383.312 26.778L381.539 29.1101L376.272 25.1053L375.918 25.5718L381.185 29.5765L377.106 34.9403L368.054 28.0572L369.916 25.6085L375.182 29.6132L375.537 29.1468L370.27 25.1421L374.26 19.8949Z" fill="black"/>
<path d="M385.123 28.1546L394.175 35.0377L392.402 37.3698L387.135 33.3651L386.78 33.8315L392.047 37.8362L387.969 43.2L378.916 36.3169L380.778 33.8682L386.045 37.8729L386.4 37.4065L381.133 33.4018L385.123 28.1546Z" fill="black"/>
<path d="M360.568 67.1979L354.479 73.4056L344.931 68.6612L340.742 74.1701L358.352 82.8121L359.145 82.0029L371.501 69.3982L372.764 68.115L382.263 58.4236L363.54 44.1876L359.514 49.4827L370.046 57.4906L365.243 62.3958L355.391 54.9049L351.365 60.1999L360.568 67.1979Z" fill="white"/>
</g>
<g clip-path="url(#clip2)">
<path d="M167.646 358.037C159.624 353.799 149.975 356.301 146.107 363.622L139.099 376.884L153.631 384.563C161.653 388.801 171.303 386.299 175.171 378.978C179.039 371.657 175.668 362.276 167.646 358.037Z" fill="#4BDF5A"/>
<path d="M161.156 405.503C157.288 412.824 147.638 415.326 139.616 411.088L125.084 403.409L139.099 376.884L153.631 384.563C161.653 388.801 165.024 398.182 161.156 405.503Z" fill="#9300C7"/>
<path d="M147.141 432.028C143.273 439.349 133.623 441.851 125.602 437.613L111.069 429.935L125.084 403.409L139.616 411.088C147.638 415.326 151.009 424.707 147.141 432.028Z" fill="#D53535"/>
<path d="M111.07 429.935L96.5379 422.257C88.5162 418.018 85.1451 408.637 89.0132 401.316C92.8814 393.995 102.531 391.493 110.553 395.731L125.085 403.41L111.07 429.935Z" fill="#FB8C26"/>
<path d="M103.028 374.791C106.896 367.47 116.546 364.968 124.568 369.206C132.589 373.445 135.96 382.826 132.092 390.147C128.224 397.468 118.574 399.97 110.553 395.732C102.531 391.493 99.16 382.112 103.028 374.791Z" fill="#0FC9D5"/>
</g>
<g clip-path="url(#clip3)">
<path d="M396.83 408.777L394.181 410.859L392.117 408.233L389.675 410.152L391.739 412.778L389.091 414.86L382.844 406.914L385.493 404.832L387.575 407.48L389.994 405.579L387.911 402.931L390.583 400.83L396.83 408.777ZM383.507 414.963L385.845 413.126L387.927 415.774L380.592 421.541L378.509 418.892L380.859 417.045L376.695 411.748L379.343 409.666L383.507 414.963ZM379.428 422.455L376.653 424.637L372.749 423.178L373.244 427.317L370.469 429.498L364.222 421.552L366.871 419.47L369.967 423.408L369.576 419.095L373.675 420.494L370.579 416.555L373.182 414.509L379.428 422.455ZM369.156 430.53L366.507 432.612L362.325 427.292L358.57 430.243L356.506 427.617L362.909 422.584" fill="black"/>
<path d="M354.284 354.462L391.615 394.132L349.834 426.975L320.121 381.354L333.516 363.148" fill="#E44D26"/>
<path d="M336.333 366.802L367.972 407.052L350.894 420.477L325.546 381.524" fill="#F16529"/>
<path d="M377 391.515L363.872 401.835L359.762 396.607L367.155 390.795L362.462 385.82L355.552 391.252L351.451 386.035L363.152 376.837L377 391.515ZM360.858 374.393L355.606 378.521L351.952 374.63L344.87 377.662L340.579 372.204L353.666 366.761" fill="#EBEBEB"/>
<path d="M350.789 412.119L363.895 401.817L359.785 396.589L347.163 406.51L350.789 412.119ZM343.425 400.784L355.575 391.234L351.465 386.005L345.016 391.075L340.285 383.8L344.893 377.644L340.62 372.209L332.246 383.599" fill="white"/>
</g>
<g clip-path="url(#clip4)">
<path d="M75.4789 222.497C75.2109 201.788 58.2056 185.217 37.4969 185.485C16.7879 185.753 0.217212 202.758 0.485151 223.467C0.753094 244.176 17.7582 260.747 38.4672 260.479C59.1759 260.211 75.7468 243.206 75.4789 222.497Z" fill="#757575"/>
<path d="M12.0741 249.569L11.3949 197.074L63.8902 196.395L64.5694 248.89L12.0741 249.569Z" fill="#BDBDBD"/>
<path d="M11.3949 197.074L64.2298 222.642L12.0741 249.569L11.3949 197.074Z" fill="white"/>
</g>
<g clip-path="url(#clip5)">
<path d="M426.936 249.699C426.931 247.084 426.102 244.807 424.869 242.898C426.717 242.209 428.365 241.519 429.571 241.401C430.978 241.271 431.837 241.111 433.517 241.284C435.197 241.456 437.586 242.207 437.769 242.194C437.952 242.182 438.811 242.036 438.837 240.529C438.862 239.023 438.467 237.721 437.938 237.568C437.409 237.415 436.204 237.121 434.963 236.923C433.138 236.654 426.63 233.87 423.222 232.279C424.558 231.779 425.729 231.347 426.661 231.255C428.069 231.125 428.928 230.965 430.608 231.138C432.287 231.31 434.677 232.061 434.859 232.049C435.042 232.036 435.901 231.89 435.927 230.384C435.953 228.878 435.557 227.575 435.028 227.422C434.499 227.269 433.258 227.098 432.054 226.777C430.85 226.457 419.981 222.748 417.173 221.776C415.731 221.276 414.583 220.846 413.799 220.541C413.799 220.541 413.744 220.527 413.653 220.485C412.979 220.222 412.614 220.069 412.614 220.069C412.614 220.069 412.614 220.069 412.596 220.069C412.103 219.861 411.648 219.64 411.648 219.531C411.649 219.448 412.965 219.304 414.754 219.573C418.532 220.139 424.408 221.469 424.609 221.456C424.718 221.457 425.74 221.708 426.275 220.615C426.81 219.55 425.935 219.163 425.936 219.067C425.936 218.971 425.626 218.901 425.626 218.901C425.626 218.901 432.233 220.124 432.249 216.661C432.26 214.497 429.115 211.497 426.272 210.005C425.601 209.07 424.168 207.078 422.625 204.948C422.026 204.138 421.428 203.3 420.865 202.516C420.939 202.462 421.03 202.408 421.104 202.353C427.097 198.193 431.355 190.465 439.372 190.833C442.294 190.97 449.963 191.761 459.21 205.812C466.734 217.377 464.589 226.54 459.923 228.105C453.263 230.345 440.95 223.097 439.218 211.177C438.564 206.628 440.914 204.258 441.794 203.66C442.71 203.034 442.765 202.939 442.584 202.705C442.312 202.32 441.489 202.563 441.013 202.697C439.769 203.047 437.57 204.501 436.48 206.974C435.519 209.16 434.964 214.483 438.257 220.948C441.948 228.181 452.277 233.873 460.962 232.259C469.775 230.645 472.733 219.707 467.87 209.319C464.977 203.143 460.407 196.44 454.439 191.605C447.343 185.861 441.155 184.927 438.559 185.284C429.346 186.567 423.308 196.052 418.851 199.837C418.705 199.644 418.578 199.466 418.47 199.315C417.218 197.405 412.195 190.124 406.851 188.291C400.797 186.208 396.437 188.569 395.845 190.14C394.013 195.019 397.24 200.06 402.597 202.783C407.954 205.506 414.934 205.212 418.136 203.982C418.173 203.968 418.209 203.955 418.246 203.928C418.628 204.422 419.027 204.931 419.408 205.426C420.17 206.401 420.878 207.363 421.459 208.188C419.762 207.714 417.736 207.362 414.814 207.183C411.381 206.961 406.919 207.993 405.159 209.367C404.388 209.98 404.367 210.705 404.364 211.171C404.356 212.786 406.143 213.521 408.258 214.339C410.847 215.337 413.857 216.242 413.857 216.242C413.857 216.242 405.715 215.093 405.7 218.105C405.695 219.2 407.589 220.319 408.555 220.816C408.537 220.816 408.537 220.816 408.537 220.816C408.537 220.816 408.591 220.844 408.719 220.899C408.956 221.01 409.102 221.079 409.102 221.079C409.102 221.079 409.12 221.079 409.138 221.079C410.159 221.522 412.474 222.519 416.321 224.003C421.28 225.917 427.482 227.768 427.482 227.768C427.482 227.768 425.965 227.925 423.442 228.474C421.96 228.795 420.331 229.472 418.758 230.012C417.938 229.57 417.483 229.294 417.483 229.294C417.483 229.294 417.483 229.294 417.464 229.307C416.845 228.948 416.171 228.562 415.515 228.134C413.148 226.63 410.435 224.837 409.651 224.587C408.721 224.295 408.044 224.36 407.494 224.905C407.09 225.3 407.032 226.011 407.083 226.737C407.204 228.08 407.638 229.026 407.91 229.493C408.253 230.221 408.779 231.072 409.56 231.87C410.996 233.342 413.056 234.242 415.778 234.173C417.276 234.139 418.776 233.777 420.185 233.332C420.44 233.47 420.695 233.595 420.95 233.733C425.45 236.069 430.392 237.887 430.392 237.887C430.392 237.887 428.875 238.043 426.351 238.592C425.071 238.86 423.68 239.414 422.326 239.901C419.98 237.712 417.247 236.357 415.459 235.87C412.139 234.991 410.638 235.654 410.285 236.926C410.117 237.5 410.478 238.323 410.823 238.927C411.148 239.695 411.71 240.602 412.545 241.468C413.981 242.94 415.984 244.361 418.706 244.292C419.948 244.257 421.173 244.016 422.362 243.68C423.376 245.533 423.931 247.918 423.441 250.955C422.386 257.467 416.955 258.728 414.673 258.47C412.39 258.212 411.155 256.837 410.774 256.383C410.392 255.929 410.265 255.778 409.991 255.818C409.589 255.871 409.606 256.09 409.677 256.474C409.802 257.009 411.505 259.905 415.706 260.05C421.076 260.281 426.958 256.476 426.936 249.699ZM404.568 199.315C401.437 197.136 400.265 194.119 401.276 192.823C402.361 191.432 406.997 192.002 410.309 194.674C412.328 196.3 414.2 198.39 415.344 199.779C415.598 200.095 415.961 200.562 416.415 201.126C416.488 201.222 416.524 201.277 416.524 201.277C416.614 201.387 416.705 201.497 416.796 201.607C412.042 202.555 407.864 201.604 404.568 199.315ZM418.776 215.13C416.332 214.365 410.074 212.759 410.426 211.803C410.722 210.983 415.474 210.499 420.163 211.686C422.516 212.286 425.323 213.546 426.416 214.277C428.163 215.463 428.742 216.767 428.028 217.078C427.094 217.47 420.308 215.603 418.776 215.13ZM410.419 228.082C410.202 227.766 410.057 227.464 410.167 227.327C410.241 227.232 410.532 227.466 410.532 227.466C410.532 227.466 412.862 229.107 413.918 229.755C414.538 230.128 415.266 230.57 416.086 231.039C416.013 231.039 415.921 231.039 415.848 231.038C413.054 231.025 411.182 228.989 410.419 228.082ZM413.42 238.119C413.641 237.887 414.371 237.931 416.651 238.723C417.545 239.028 419.039 239.748 420.476 240.973C419.891 241.107 419.324 241.201 418.794 241.184C415.269 241.153 413.963 239.257 413.42 238.119Z" fill="#CD6799"/>
</g>
<defs>
<clipPath id="clip0">
<rect width="75" height="75" fill="white" transform="translate(79.3006 44.1341) rotate(-34.8279)"/>
</clipPath>
<clipPath id="clip1">
<rect width="75" height="75" fill="white" transform="translate(349.347 0.951603) rotate(37.2484)"/>
</clipPath>
<clipPath id="clip2">
<rect width="65.7563" height="90" fill="white" transform="translate(140.14 445.294) rotate(-152.15)"/>
</clipPath>
<clipPath id="clip3">
<rect width="75" height="75" fill="white" transform="translate(409.313 398.964) rotate(141.83)"/>
</clipPath>
<clipPath id="clip4">
<rect width="75" height="75" fill="white" transform="translate(0.970303 260.964) rotate(-90.7413)"/>
</clipPath>
<clipPath id="clip5">
<rect width="75" height="75" fill="white" transform="translate(470.367 185.367) rotate(90.2807)"/>
</clipPath>
</defs>
</svg>
