<svg width="475" height="411" viewBox="0 0 475 411" fill="none" xmlns="http://www.w3.org/2000/svg">
<path d="M93 65.3294C93 70.6708 97.3298 75 102.671 75H158.329C163.671 75 168 70.6702 168 65.3294V9.6709C168 4.3292 163.67 0 158.329 0H102.671C97.3292 0 93 4.32978 93 9.67061V65.3291V65.3294Z" fill="#563D7C"/>
<path d="M124.101 33.1752V22.5542H133.45C134.341 22.5542 135.199 22.6283 136.026 22.7769C136.852 22.9251 137.584 23.1899 138.22 23.5717C138.856 23.9534 139.365 24.4834 139.746 25.1616C140.128 25.8401 140.319 26.7094 140.319 27.769C140.319 29.6771 139.746 31.0553 138.602 31.9031C137.457 32.7513 135.994 33.1752 134.213 33.1752H124.101ZM114.116 14.7949V60.2051H136.121C138.157 60.2051 140.139 59.9508 142.068 59.4419C143.997 58.933 145.714 58.1487 147.22 57.0888C148.724 56.0288 149.922 54.6612 150.813 52.9866C151.703 51.3117 152.148 49.3295 152.148 47.0399C152.148 44.199 151.459 41.7718 150.082 39.7579C148.703 37.7437 146.615 36.334 143.817 35.5283C145.852 34.5533 147.389 33.3023 148.428 31.776C149.467 30.2496 149.986 28.3418 149.986 26.052C149.986 23.932 149.636 22.1514 148.937 20.7097C148.237 19.2683 147.251 18.1128 145.979 17.2436C144.707 16.3743 143.181 15.7488 141.4 15.3674C139.619 14.9856 137.648 14.7949 135.485 14.7949H114.116ZM124.101 52.4458V39.9803H134.976C137.139 39.9803 138.877 40.4783 140.192 41.475C141.506 42.4714 142.163 44.1354 142.163 46.4675C142.163 47.6549 141.962 48.6299 141.559 49.3931C141.156 50.1562 140.616 50.7606 139.937 51.2057C139.259 51.651 138.474 51.9688 137.584 52.1599C136.693 52.3503 135.761 52.4458 134.786 52.4458H124.101Z" fill="white"/>
<g clip-path="url(#clip0)">
<path d="M393 14.7393L386.167 68.9676L355.454 75L324.825 68.9761L318 14.7393H393Z" fill="#264DE4"/>
<path d="M380.318 65.5145L386.157 19.1739H355.5V70.3891L380.318 65.5145Z" fill="#2965F1"/>
<path d="M333.647 39.2896L334.489 45.9415H355.5V39.2896H333.647Z" fill="#EBEBEB"/>
<path d="M355.5 25.8259H355.468H331.956L332.81 32.4779H355.5V25.8259Z" fill="#EBEBEB"/>
<path d="M355.5 63.4862V56.5654L355.459 56.5731L345.002 54.5728L344.334 49.2675H339.252H334.908L336.224 59.712L355.457 63.4947L355.5 63.4862Z" fill="#EBEBEB"/>
<path d="M335.651 0H347.023V3.36914H340.406V6.73828H347.023V10.1074H335.651V0Z" fill="black"/>
<path d="M349.297 0H360.669V2.92969H354.053V3.51562H360.669V10.2539H349.297V7.17773H355.914V6.5918H349.297V0Z" fill="black"/>
<path d="M362.943 0H374.315V2.92969H367.699V3.51562H374.315V10.2539H362.943V7.17773H369.56V6.5918H362.943V0Z" fill="black"/>
<path d="M367.029 45.9415L365.939 54.5685L355.468 56.571V63.4915L374.716 59.712L374.857 58.5882L377.064 41.0758L377.293 39.2896L378.988 25.8259H355.468V32.4779H368.698L367.844 39.2896H355.468V45.9415H367.029Z" fill="white"/>
</g>
<path d="M111.754 411C122.102 411 130.5 404.28 130.5 396V381H111.754C101.406 381 93.0075 387.72 93.0075 396C93.0075 404.28 101.406 411 111.754 411Z" fill="#4BDF5A"/>
<path d="M93.0075 366C93.0075 357.72 101.406 351 111.754 351H130.5V381H111.754C101.406 381 93.0075 374.28 93.0075 366Z" fill="#9300C7"/>
<path d="M93.0075 336C93.0075 327.72 101.406 321 111.754 321H130.5V351H111.754C101.406 351 93.0075 344.28 93.0075 336Z" fill="#D53535"/>
<path d="M130.5 321H149.246C159.594 321 167.993 327.72 167.993 336C167.993 344.28 159.594 351 149.246 351H130.5V321Z" fill="#FB8C26"/>
<path d="M167.993 366C167.993 374.28 159.594 381 149.246 381C138.898 381 130.5 374.28 130.5 366C130.5 357.72 138.898 351 149.246 351C159.594 351 167.993 357.72 167.993 366Z" fill="#0FC9D5"/>
<path d="M333.879 321H337.248V324.34H340.354V321H343.723V331.107H340.354V327.738H337.277V331.107H333.879V321ZM348.176 324.369H345.202V321H354.533V324.369H351.545V331.107H348.176V324.369ZM356.013 321H359.543L361.711 324.56L363.879 321H367.409V331.107H364.04V326.098L361.682 329.73L359.323 326.098V331.107H356.013V321ZM369.079 321H372.448V327.768H377.224V331.107H369.079" fill="black"/>
<path d="M333.762 389.994L328.928 335.736H382.072L377.238 389.965L355.456 396" fill="#E44D26"/>
<path d="M355.5 391.386V340.189H377.224L373.078 386.479" fill="#F16529"/>
<path d="M338.801 346.825H355.5V353.476H346.096L346.711 360.287H355.5V366.923H340.617L338.801 346.825ZM340.91 370.263H347.59L348.059 375.58L355.5 377.572V384.516L341.848 380.707" fill="#EBEBEB"/>
<path d="M372.141 346.825H355.471V353.476H371.525L372.141 346.825ZM370.925 360.287H355.471V366.938H363.674L362.897 375.58L355.471 377.572V384.486L369.094 380.707" fill="white"/>
<path d="M37.5 248C58.2105 248 75 231.211 75 210.5C75 189.789 58.2105 173 37.5 173C16.7893 173 0 189.789 0 210.5C0 231.211 16.7893 248 37.5 248Z" fill="#757575"/>
<path d="M11.2499 184.25H63.75V236.75H11.2499V184.25Z" fill="#BDBDBD"/>
<path d="M63.75 184.25L37.4999 236.75L11.2499 184.25H63.75Z" fill="white"/>
<g clip-path="url(#clip1)">
<path d="M464.544 216.115C461.929 216.133 459.656 216.973 457.753 218.215C457.054 216.37 456.357 214.726 456.233 213.521C456.096 212.114 455.932 211.256 456.096 209.575C456.261 207.895 457 205.502 456.986 205.319C456.973 205.136 456.822 204.278 455.315 204.259C453.809 204.241 452.509 204.643 452.359 205.173C452.208 205.702 451.921 206.908 451.729 208.15C451.469 209.977 448.717 216.498 447.142 219.914C446.636 218.581 446.197 217.412 446.102 216.48C445.965 215.073 445.8 214.215 445.965 212.534C446.129 210.854 446.868 208.461 446.855 208.278C446.841 208.095 446.69 207.237 445.184 207.219C443.678 207.2 442.378 207.602 442.227 208.132C442.076 208.662 441.912 209.904 441.597 211.109C441.282 212.315 437.627 223.202 436.668 226.015C436.176 227.458 435.751 228.609 435.45 229.395C435.45 229.395 435.436 229.45 435.395 229.541C435.135 230.217 434.984 230.582 434.984 230.582C434.984 230.582 434.984 230.582 434.984 230.6C434.779 231.093 434.56 231.55 434.45 231.55C434.368 231.55 434.218 230.235 434.478 228.444C435.026 224.664 436.326 218.782 436.312 218.581C436.312 218.471 436.559 217.448 435.464 216.918C434.396 216.389 434.012 217.265 433.917 217.265C433.821 217.265 433.752 217.576 433.752 217.576C433.752 217.576 434.943 210.963 431.479 210.963C429.316 210.963 426.332 214.123 424.853 216.973C423.922 217.649 421.937 219.092 419.815 220.645C419.007 221.248 418.172 221.85 417.391 222.417C417.337 222.344 417.282 222.252 417.227 222.179C413.038 216.206 405.288 211.986 405.617 203.967C405.74 201.044 406.493 193.372 420.499 184.056C432.027 176.476 441.2 178.576 442.788 183.234C445.061 189.883 437.873 202.232 425.962 204.022C421.417 204.698 419.034 202.36 418.432 201.483C417.802 200.57 417.706 200.515 417.473 200.697C417.09 200.971 417.337 201.793 417.473 202.268C417.829 203.51 419.294 205.702 421.772 206.78C423.963 207.73 429.289 208.26 435.737 204.935C442.953 201.209 448.593 190.852 446.937 182.175C445.28 173.37 434.327 170.466 423.963 175.38C417.802 178.302 411.121 182.905 406.315 188.897C400.606 196.021 399.702 202.214 400.072 204.807C401.4 214.014 410.915 220.005 414.722 224.444C414.53 224.591 414.352 224.718 414.201 224.828C412.298 226.088 405.042 231.148 403.235 236.5C401.181 242.565 403.563 246.913 405.138 247.497C410.026 249.306 415.05 246.054 417.747 240.684C420.444 235.313 420.116 228.335 418.87 225.139C418.856 225.102 418.843 225.065 418.815 225.029C419.308 224.645 419.815 224.244 420.308 223.86C421.28 223.093 422.238 222.38 423.059 221.796C422.594 223.495 422.252 225.522 422.087 228.444C421.882 231.879 422.936 236.336 424.319 238.09C424.935 238.857 425.661 238.875 426.126 238.875C427.742 238.875 428.467 237.085 429.275 234.966C430.261 232.372 431.151 229.358 431.151 229.358C431.151 229.358 430.042 237.505 433.054 237.505C434.149 237.505 435.258 235.606 435.751 234.637C435.751 234.656 435.751 234.655 435.751 234.655C435.751 234.655 435.778 234.6 435.833 234.472C435.943 234.235 436.011 234.089 436.011 234.089C436.011 234.089 436.011 234.071 436.011 234.053C436.449 233.03 437.435 230.71 438.9 226.855C440.789 221.887 442.61 215.676 442.61 215.676C442.61 215.676 442.775 217.192 443.336 219.713C443.665 221.193 444.349 222.818 444.897 224.389C444.459 225.211 444.185 225.668 444.185 225.668C444.185 225.668 444.185 225.668 444.199 225.687C443.843 226.308 443.459 226.983 443.035 227.641C441.542 230.015 439.763 232.737 439.516 233.523C439.229 234.454 439.297 235.131 439.845 235.679C440.242 236.08 440.954 236.135 441.679 236.08C443.021 235.953 443.966 235.514 444.431 235.24C445.157 234.893 446.006 234.363 446.8 233.577C448.265 232.134 449.155 230.07 449.073 227.348C449.032 225.851 448.662 224.353 448.21 222.946C448.347 222.691 448.47 222.435 448.607 222.179C450.921 217.667 452.715 212.717 452.715 212.717C452.715 212.717 452.878 214.233 453.44 216.754C453.714 218.033 454.275 219.421 454.768 220.773C452.591 223.129 451.25 225.869 450.771 227.659C449.908 230.984 450.579 232.481 451.852 232.828C452.427 232.993 453.249 232.628 453.851 232.28C454.618 231.952 455.521 231.386 456.383 230.546C457.848 229.103 459.259 227.093 459.176 224.371C459.135 223.129 458.889 221.905 458.547 220.718C460.395 219.695 462.778 219.129 465.817 219.604C472.334 220.627 473.621 226.051 473.374 228.335C473.128 230.618 471.759 231.86 471.307 232.244C470.855 232.628 470.704 232.755 470.745 233.029C470.8 233.431 471.019 233.414 471.403 233.34C471.937 233.213 474.825 231.495 474.949 227.294C475.154 221.923 471.321 216.06 464.544 216.115ZM414.27 238.729C412.107 241.871 409.094 243.058 407.794 242.053C406.397 240.975 406.945 236.336 409.601 233.012C411.217 230.984 413.298 229.102 414.681 227.951C414.995 227.695 415.461 227.331 416.022 226.874C416.118 226.801 416.173 226.764 416.173 226.764C416.282 226.673 416.392 226.582 416.501 226.49C417.473 231.24 416.542 235.422 414.27 238.729ZM430.015 224.444C429.261 226.892 427.687 233.158 426.729 232.811C425.907 232.518 425.401 227.769 426.564 223.074C427.153 220.718 428.399 217.905 429.125 216.809C430.302 215.055 431.603 214.471 431.918 215.183C432.315 216.115 430.48 222.91 430.015 224.444ZM443.007 232.737C442.693 232.956 442.391 233.103 442.254 232.993C442.159 232.92 442.391 232.628 442.391 232.628C442.391 232.628 444.021 230.289 444.664 229.23C445.034 228.609 445.472 227.878 445.937 227.056C445.937 227.129 445.937 227.221 445.937 227.294C445.937 230.088 443.911 231.97 443.007 232.737ZM453.029 229.687C452.796 229.468 452.838 228.737 453.618 226.453C453.919 225.558 454.631 224.06 455.849 222.618C455.986 223.202 456.083 223.769 456.069 224.298C456.055 227.824 454.165 229.139 453.029 229.687Z" fill="#CD6799"/>
</g>
<defs>
<clipPath id="clip0">
<rect width="75" height="75" fill="white" transform="translate(318)"/>
</clipPath>
<clipPath id="clip1">
<rect width="75" height="75" fill="white" transform="translate(400 173)"/>
</clipPath>
</defs>
</svg>
