<svg width="477" height="441" viewBox="0 0 477 441" fill="none" xmlns="http://www.w3.org/2000/svg">
<g clip-path="url(#clip0)">
<path d="M116.611 97.7611C119.662 102.146 125.688 103.227 130.072 100.176L175.761 68.3891C180.146 65.3384 181.227 59.3117 178.176 54.9276L146.389 9.23915C143.338 4.85431 137.312 3.7734 132.928 6.82361L87.2392 38.6109C82.8543 41.6616 81.7734 47.6883 84.8236 52.0724L116.611 97.7609L116.611 97.7611Z" fill="#563D7C"/>
<path d="M123.777 53.6045L117.712 44.886L125.386 39.5467C126.117 39.038 126.864 38.6086 127.627 38.2584C128.391 37.9079 129.142 37.7075 129.883 37.6576C130.622 37.6079 131.343 37.7523 132.044 38.091C132.744 38.4302 133.397 39.0346 134.003 39.9044C135.092 41.4708 135.41 42.929 134.954 44.2788C134.499 45.6287 133.54 46.8122 132.078 47.8293L123.777 53.6045ZM105.083 44.2194L131.018 81.4952L149.082 68.9276C150.752 67.7652 152.234 66.4244 153.527 64.9049C154.82 63.3854 155.782 61.7609 156.412 60.0311C157.042 58.3015 157.244 56.4947 157.019 54.6116C156.793 52.7281 156.027 50.8468 154.719 48.9674C153.097 46.6353 151.145 45.0364 148.863 44.1702C146.582 43.3039 144.063 43.3393 141.305 44.2762C142.419 42.3135 142.967 40.4087 142.948 38.5624C142.928 36.7163 142.265 34.8536 140.957 32.9739C139.747 31.2337 138.443 29.9718 137.045 29.1879C135.647 28.4043 134.178 28.0188 132.638 28.0318C131.097 28.0446 129.487 28.4029 127.807 29.1069C126.128 29.8105 124.4 30.78 122.625 32.015L105.083 44.2194ZM134.783 69.4231L127.664 59.1906L136.591 52.9795C138.366 51.7445 140.078 51.1605 141.726 51.2279C143.374 51.2952 144.864 52.2857 146.196 54.2C146.874 55.1747 147.265 56.0902 147.37 56.9467C147.476 57.8033 147.377 58.6081 147.074 59.3609C146.772 60.1138 146.309 60.8228 145.688 61.4881C145.065 62.1531 144.354 62.764 143.554 63.321L134.783 69.4231Z" fill="white"/>
</g>
<g clip-path="url(#clip1)">
<path d="M400.127 58.0797L361.865 97.1109L333.766 83.3229L313.031 59.9892L340.426 12.6843L400.127 58.0797Z" fill="#264DE4"/>
<path d="M359.299 90.8216L391.996 57.4678L367.592 38.9121L336.593 79.6804L359.299 90.8216Z" fill="#2965F1"/>
<path d="M338.022 41.6977L334.665 47.502L351.391 60.2196L355.417 54.9246L338.022 41.6977Z" fill="#EBEBEB"/>
<path d="M363.566 44.2072L363.54 44.1876L344.825 29.9569L341.478 35.7686L359.54 49.5023L363.566 44.2072Z" fill="#EBEBEB"/>
<path d="M340.771 74.1855L344.96 68.6764L344.923 68.6577L337.81 60.7361L340.489 56.1085L336.444 53.0329L332.986 50.4036L327.711 59.5138L340.732 74.1661L340.771 74.1855Z" fill="#EBEBEB"/>
<path d="M363.397 11.6351L372.45 18.5182L370.41 21.2001L365.144 17.1954L363.104 19.8773L368.371 23.882L366.332 26.5639L357.28 19.6808L363.397 11.6351Z" fill="black"/>
<path d="M374.26 19.8949L383.312 26.778L381.539 29.1101L376.272 25.1053L375.918 25.5718L381.185 29.5765L377.106 34.9403L368.054 28.0572L369.916 25.6085L375.182 29.6132L375.537 29.1468L370.27 25.1421L374.26 19.8949Z" fill="black"/>
<path d="M385.123 28.1546L394.175 35.0377L392.402 37.3698L387.135 33.3651L386.78 33.8315L392.047 37.8362L387.969 43.2L378.916 36.3169L380.778 33.8682L386.045 37.8729L386.4 37.4065L381.133 33.4018L385.123 28.1546Z" fill="black"/>
<path d="M360.568 67.1979L354.479 73.4056L344.931 68.6612L340.742 74.1701L358.352 82.8121L359.145 82.0029L371.501 69.3982L372.764 68.115L382.263 58.4236L363.54 44.1876L359.514 49.4827L370.046 57.4906L365.243 62.3958L355.391 54.9049L351.365 60.1999L360.568 67.1979Z" fill="white"/>
</g>
<g clip-path="url(#clip2)">
<path d="M174.452 358.945C166.429 352.411 155.673 352.318 150.444 358.738L140.972 370.369L155.508 382.207C163.532 388.742 174.287 388.834 179.516 382.414C184.744 375.994 182.476 365.48 174.452 358.945Z" fill="#4BDF5A"/>
<path d="M160.571 405.676C155.343 412.096 144.587 412.003 136.563 405.469L122.028 393.631L140.972 370.369L155.508 382.207C163.532 388.742 165.8 399.256 160.571 405.676Z" fill="#9300C7"/>
<path d="M141.627 428.938C136.398 435.358 125.643 435.265 117.619 428.731L103.083 416.893L122.028 393.631L136.563 405.469C144.587 412.003 146.856 422.517 141.627 428.938Z" fill="#D53535"/>
<path d="M103.083 416.893L88.5477 405.055C80.524 398.52 78.2555 388.006 83.4842 381.586C88.7128 375.166 99.4684 375.259 107.492 381.793L122.028 393.631L103.083 416.893Z" fill="#FB8C26"/>
<path d="M102.429 358.324C107.657 351.904 118.413 351.997 126.436 358.531C134.46 365.066 136.729 375.58 131.5 382C126.271 388.42 115.516 388.328 107.492 381.793C99.4684 375.259 97.1999 364.745 102.429 358.324Z" fill="#0FC9D5"/>
</g>
<g clip-path="url(#clip3)">
<path d="M396.673 390.62L394.024 392.702L391.96 390.077L389.519 391.996L391.583 394.622L388.934 396.704L382.688 388.757L385.336 386.675L387.419 389.324L389.837 387.423L387.755 384.774L390.427 382.674L396.673 390.62ZM383.351 396.807L385.689 394.969L387.771 397.618L380.435 403.384L378.353 400.736L380.702 398.889L376.538 393.591L379.187 391.509L383.351 396.807ZM379.272 404.299L376.496 406.481L372.592 405.022L373.088 409.16L370.312 411.342L364.066 403.396L366.715 401.313L369.811 405.252L369.42 400.938L373.519 402.337L370.423 398.398L373.025 396.353L379.272 404.299ZM368.999 412.374L366.35 414.456L362.168 409.135L358.414 412.087L356.35 409.461L362.753 404.428" fill="black"/>
<path d="M354.127 336.306L391.459 375.975L349.677 408.818L319.965 363.197L333.36 344.991" fill="#E44D26"/>
<path d="M336.177 348.646L367.816 388.896L350.737 402.321L325.39 363.367" fill="#F16529"/>
<path d="M376.844 373.359L363.715 383.679L359.605 378.45L366.999 372.638L362.305 367.664L355.396 373.095L351.295 367.878L362.995 358.681L376.844 373.359ZM360.701 356.236L355.45 360.364L351.795 356.473L344.713 359.506L340.423 354.047L353.509 348.604" fill="#EBEBEB"/>
<path d="M350.632 393.962L363.738 383.661L359.628 378.432L347.006 388.354L350.632 393.962ZM343.269 382.628L355.419 373.077L351.309 367.849L344.86 372.918L340.129 365.644L344.737 359.488L340.464 354.052L332.089 365.442" fill="white"/>
</g>
<g clip-path="url(#clip4)">
<path d="M75.9969 226.015C75.7289 205.306 58.7236 188.735 38.0148 189.003C17.3059 189.271 0.735199 206.276 1.00314 226.985C1.27108 247.694 18.2762 264.265 38.9852 263.997C59.6939 263.729 76.2648 246.724 75.9969 226.015Z" fill="#757575"/>
<path d="M12.5921 253.087L11.9128 200.592L64.4082 199.913L65.0874 252.408L12.5921 253.087Z" fill="#BDBDBD"/>
<path d="M11.9128 200.592L64.7478 226.16L12.5921 253.087L11.9128 200.592Z" fill="white"/>
</g>
<g clip-path="url(#clip5)">
<path d="M432.753 253.516C432.748 250.901 431.919 248.624 430.686 246.715C432.534 246.025 434.181 245.336 435.388 245.218C436.795 245.088 437.654 244.928 439.334 245.1C441.014 245.273 443.403 246.024 443.586 246.011C443.768 245.999 444.628 245.852 444.653 244.346C444.679 242.84 444.283 241.538 443.754 241.384C443.226 241.231 442.021 240.938 440.78 240.74C438.955 240.471 432.447 237.687 429.039 236.096C430.375 235.596 431.546 235.163 432.478 235.072C433.885 234.942 434.745 234.782 436.424 234.955C438.104 235.127 440.493 235.878 440.676 235.865C440.859 235.853 441.718 235.706 441.744 234.2C441.769 232.694 441.374 231.392 440.845 231.239C440.316 231.085 439.075 230.915 437.871 230.594C436.667 230.273 425.798 226.565 422.989 225.592C421.548 225.092 420.4 224.662 419.616 224.357C419.616 224.357 419.561 224.343 419.47 224.302C418.795 224.038 418.431 223.886 418.431 223.886C418.431 223.886 418.431 223.886 418.413 223.886C417.92 223.678 417.465 223.457 417.465 223.347C417.466 223.265 418.781 223.121 420.571 223.39C424.349 223.956 430.224 225.286 430.425 225.273C430.535 225.273 431.557 225.525 432.092 224.432C432.627 223.367 431.752 222.979 431.752 222.883C431.753 222.788 431.443 222.718 431.443 222.718C431.443 222.718 438.049 223.941 438.066 220.477C438.077 218.314 434.931 215.314 432.089 213.821C431.418 212.887 429.984 210.895 428.442 208.765C427.843 207.954 427.245 207.116 426.682 206.333C426.755 206.279 426.847 206.224 426.92 206.17C432.914 202.01 437.172 194.281 445.189 194.649C448.111 194.787 455.779 195.577 465.027 209.629C472.551 221.194 470.405 230.357 465.74 231.922C459.079 234.162 446.766 226.914 445.035 214.994C444.381 210.445 446.731 208.074 447.611 207.476C448.527 206.851 448.582 206.755 448.401 206.522C448.129 206.137 447.305 206.379 446.83 206.514C445.586 206.864 443.387 208.318 442.297 210.791C441.336 212.977 440.78 218.3 444.073 224.765C447.764 231.998 458.094 237.69 466.779 236.075C475.591 234.462 478.549 223.523 473.686 213.135C470.794 206.96 466.224 200.256 460.256 195.421C453.16 189.677 446.972 188.743 444.376 189.1C435.163 190.383 429.125 199.869 424.668 203.653C424.522 203.461 424.395 203.283 424.286 203.131C423.035 201.222 418.011 193.941 412.668 192.108C406.613 190.024 402.254 192.385 401.662 193.957C399.83 198.836 403.056 203.876 408.414 206.6C413.771 209.323 420.75 209.029 423.953 207.798C423.99 207.785 424.026 207.771 424.063 207.744C424.444 208.239 424.843 208.748 425.225 209.242C425.987 210.218 426.695 211.18 427.275 212.004C425.579 211.53 423.553 211.178 420.631 211C417.198 210.777 412.736 211.81 410.975 213.184C410.205 213.796 410.183 214.522 410.181 214.987C410.173 216.603 411.96 217.337 414.075 218.155C416.664 219.154 419.673 220.059 419.673 220.059C419.673 220.059 411.532 218.91 411.517 221.922C411.512 223.017 413.406 224.135 414.372 224.633C414.353 224.633 414.353 224.633 414.353 224.633C414.353 224.633 414.408 224.66 414.536 224.716C414.772 224.827 414.919 224.896 414.919 224.896C414.919 224.896 414.937 224.896 414.955 224.896C415.976 225.339 418.291 226.336 422.138 227.82C427.097 229.734 433.299 231.585 433.299 231.585C433.299 231.585 431.782 231.742 429.258 232.291C427.777 232.612 426.148 233.289 424.575 233.829C423.755 233.387 423.3 233.11 423.3 233.11C423.3 233.11 423.3 233.11 423.281 233.124C422.662 232.765 421.988 232.378 421.332 231.951C418.965 230.447 416.252 228.654 415.467 228.403C414.537 228.111 413.861 228.176 413.31 228.721C412.907 229.116 412.848 229.828 412.9 230.554C413.021 231.896 413.455 232.843 413.726 233.31C414.07 234.037 414.596 234.889 415.377 235.687C416.813 237.159 418.873 238.059 421.595 237.99C423.093 237.956 424.593 237.594 426.001 237.149C426.256 237.287 426.512 237.412 426.767 237.55C431.267 239.886 436.209 241.703 436.209 241.703C436.209 241.703 434.692 241.86 432.168 242.409C430.888 242.677 429.497 243.231 428.143 243.717C425.797 241.529 423.064 240.174 421.276 239.686C417.956 238.807 416.455 239.471 416.102 240.742C415.934 241.317 416.295 242.14 416.64 242.744C416.964 243.512 417.527 244.418 418.362 245.285C419.798 246.757 421.801 248.177 424.523 248.108C425.765 248.073 426.99 247.833 428.179 247.497C429.193 249.35 429.748 251.735 429.258 254.772C428.203 261.284 422.772 262.544 420.49 262.287C418.207 262.029 416.972 260.654 416.591 260.2C416.209 259.746 416.082 259.595 415.808 259.635C415.406 259.688 415.423 259.907 415.494 260.291C415.619 260.825 417.322 263.722 421.523 263.866C426.892 264.098 432.775 260.293 432.753 253.516ZM410.385 203.132C407.254 200.953 406.082 197.935 407.092 196.64C408.177 195.248 412.814 195.819 416.126 198.491C418.145 200.117 420.016 202.207 421.161 203.595C421.415 203.911 421.778 204.379 422.232 204.942C422.305 205.038 422.341 205.093 422.341 205.093C422.431 205.203 422.522 205.313 422.613 205.423C417.859 206.372 413.681 205.421 410.385 203.132ZM424.593 218.946C422.149 218.181 415.891 216.576 416.243 215.619C416.539 214.799 421.291 214.316 425.98 215.503C428.333 216.103 431.14 217.363 432.232 218.094C433.98 219.28 434.558 220.583 433.845 220.895C432.911 221.287 426.125 219.419 424.593 218.946ZM416.236 231.898C416.018 231.582 415.874 231.28 415.984 231.144C416.058 231.049 416.348 231.283 416.348 231.283C416.348 231.283 418.679 232.924 419.735 233.572C420.354 233.945 421.083 234.387 421.902 234.856C421.829 234.856 421.738 234.855 421.665 234.855C418.87 234.841 416.999 232.806 416.236 231.898ZM419.237 241.935C419.458 241.703 420.188 241.748 422.468 242.54C423.361 242.845 424.856 243.564 426.293 244.79C425.708 244.924 425.141 245.017 424.611 245.001C421.086 244.97 419.78 243.074 419.237 241.935Z" fill="#CD6799"/>
</g>
<defs>
<clipPath id="clip0">
<rect width="75" height="75" fill="white" transform="translate(79.3006 44.1341) rotate(-34.8279)"/>
</clipPath>
<clipPath id="clip1">
<rect width="75" height="75" fill="white" transform="translate(349.347 0.951603) rotate(37.2484)"/>
</clipPath>
<clipPath id="clip2">
<rect width="75" height="90" fill="white" transform="translate(132.161 440.573) rotate(-140.841)"/>
</clipPath>
<clipPath id="clip3">
<rect width="75" height="75" fill="white" transform="translate(409.157 380.807) rotate(141.83)"/>
</clipPath>
<clipPath id="clip4">
<rect width="75" height="75" fill="white" transform="translate(1.48829 264.482) rotate(-90.7413)"/>
</clipPath>
<clipPath id="clip5">
<rect width="75" height="75" fill="white" transform="translate(476.183 189.184) rotate(90.2807)"/>
</clipPath>
</defs>
</svg>
