<svg width="457" height="436" viewBox="0 0 457 436" fill="none" xmlns="http://www.w3.org/2000/svg">
<path d="M109.714 116.351C109.714 110.052 101.965 104.082 90.0855 100.38C92.8264 88.0524 91.6082 78.2448 86.2394 75.1048C85.002 74.3682 83.5546 74.0193 81.975 74.0193V78.3417C82.8502 78.3417 83.5546 78.5161 84.1453 78.8456C86.7347 80.3575 87.8575 86.1141 86.9815 93.5182C86.7724 95.3402 86.4294 97.2591 86.011 99.2167C82.2796 98.2864 78.2051 97.5692 73.9215 97.104C71.3513 93.5182 68.6857 90.262 66.0017 87.4127C72.208 81.5398 78.0336 78.3223 81.9934 78.3223V74C76.7585 74 69.9039 77.7989 62.9742 84.3891C56.0441 77.8377 49.1902 74.0775 43.9547 74.0775V78.3998C47.8956 78.3998 53.7405 81.5979 59.9471 87.4321C57.2817 90.2814 54.6162 93.5182 52.0841 97.104C47.7814 97.5692 43.7072 98.2864 39.9756 99.2361C39.5378 97.2978 39.2141 95.4178 38.9856 93.6152C38.0908 86.211 39.1951 80.4544 41.7652 78.9232C42.3364 78.5742 43.0789 78.4192 43.9547 78.4192V74.0968C42.3554 74.0968 40.9085 74.4458 39.652 75.1823C34.3021 78.3223 33.1027 88.1105 35.8633 100.399C24.0213 104.121 16.3107 110.071 16.3107 116.351C16.3107 122.65 24.0594 128.62 35.9394 132.322C33.1979 144.65 34.4163 154.457 39.7852 157.597C41.0227 158.334 42.4696 158.682 44.0689 158.682C49.3045 158.682 56.1584 154.884 63.0885 148.294C70.0185 154.845 76.8723 158.605 82.108 158.605C83.7069 158.605 85.1543 158.256 86.4109 157.52C91.7605 154.38 92.9602 144.591 90.1993 132.303C102.004 128.601 109.714 122.631 109.714 116.351ZM84.9259 103.423C84.2214 105.923 83.3455 108.501 82.3557 111.079C81.5751 109.528 80.756 107.978 79.8616 106.427C78.9857 104.876 78.0528 103.365 77.12 101.892C79.8232 102.299 82.4318 102.803 84.9259 103.423ZM76.2063 124.065C74.7213 126.682 73.1978 129.163 71.6173 131.469C68.7811 131.721 65.9064 131.857 63.0124 131.857C60.1374 131.857 57.2626 131.721 54.4449 131.489C52.8647 129.182 51.3226 126.721 49.8376 124.123C48.3907 121.584 47.077 119.006 45.8775 116.409C47.058 113.812 48.3907 111.215 49.8186 108.675C51.3035 106.059 52.8266 103.578 54.4068 101.271C57.2436 101.019 60.1184 100.884 63.0124 100.884C65.8871 100.884 68.7619 101.019 71.5797 101.252C73.1601 103.558 74.702 106.02 76.1871 108.617C77.6337 111.156 78.9472 113.734 80.147 116.332C78.9472 118.929 77.6337 121.526 76.2063 124.065ZM82.3557 121.545C83.3839 124.143 84.2591 126.74 84.9828 129.26C82.4887 129.88 79.8616 130.403 77.1392 130.81C78.0721 129.318 79.0049 127.787 79.8801 126.217C80.756 124.666 81.5751 123.096 82.3557 121.545ZM63.0501 142.227C61.2798 140.366 59.5092 138.292 57.7576 136.025C59.4711 136.101 61.2227 136.16 62.9933 136.16C64.7828 136.16 66.5531 136.121 68.2858 136.025C66.5724 138.292 64.802 140.366 63.0501 142.227ZM48.8856 130.81C46.1822 130.403 43.5739 129.899 41.0799 129.279C41.7842 126.779 42.66 124.201 43.6501 121.623C44.4306 123.174 45.2493 124.724 46.1441 126.275C47.0389 127.825 47.9528 129.337 48.8856 130.81ZM62.9552 90.4752C64.7259 92.3359 66.4962 94.4098 68.2481 96.6776C66.5347 96.6001 64.7828 96.5419 63.0124 96.5419C61.2227 96.5419 59.4521 96.5807 57.7195 96.6776C59.4331 94.4098 61.2037 92.3359 62.9552 90.4752ZM48.8666 101.892C47.9338 103.384 47.0008 104.915 46.1251 106.485C45.2493 108.036 44.4306 109.586 43.6501 111.137C42.622 108.54 41.7462 105.942 41.0227 103.423C43.5168 102.822 46.1441 102.299 48.8666 101.892ZM31.6367 126.159C24.8971 123.232 20.5372 119.394 20.5372 116.351C20.5372 113.308 24.8971 109.451 31.6367 106.543C33.274 105.826 35.0636 105.187 36.9104 104.586C37.9956 108.385 39.4235 112.339 41.1941 116.39C39.4425 120.421 38.0337 124.356 36.9675 128.136C35.0827 127.535 33.2931 126.876 31.6367 126.159ZM41.8795 153.856C39.2902 152.345 38.1669 146.588 39.0427 139.184C39.2521 137.361 39.5948 135.443 40.0137 133.485C43.7453 134.416 47.8195 135.133 52.1032 135.598C54.6734 139.184 57.3388 142.44 60.0232 145.289C53.8167 151.162 47.9908 154.38 44.0308 154.38C43.1741 154.36 42.4506 154.186 41.8795 153.856ZM87.0392 139.087C87.9336 146.491 86.8293 152.248 84.2591 153.778C83.6885 154.128 82.9455 154.283 82.0696 154.283C78.129 154.283 72.2841 151.085 66.0779 145.251C68.7426 142.401 71.4082 139.165 73.9407 135.578C78.2428 135.113 82.3172 134.396 86.0487 133.446C86.4871 135.404 86.8293 137.285 87.0392 139.087ZM94.3691 126.159C92.7318 126.876 90.9422 127.515 89.0949 128.116C88.0098 124.317 86.5824 120.363 84.8113 116.312C86.5632 112.281 87.9721 108.346 89.038 104.566C90.923 105.167 92.7126 105.826 94.3875 106.543C101.128 109.47 105.487 113.308 105.487 116.351C105.468 119.394 101.108 123.251 94.3691 126.159Z" fill="#61DAFB"/>
<path d="M60.6909 124.716C65.4962 124.716 69.3912 120.75 69.3912 115.858C69.3912 110.966 65.4962 107 60.6909 107C55.8857 107 51.9903 110.966 51.9903 115.858C51.9903 120.75 55.8857 124.716 60.6909 124.716Z" fill="#61DAFB"/>
<g clip-path="url(#clip0)">
<path d="M276.262 361H199.806V436H276.262V361Z" fill="#F7DF1E"/>
<path d="M251.165 419.594C252.705 422.06 254.709 423.873 258.253 423.873C261.229 423.873 263.131 422.414 263.131 420.397C263.131 417.981 261.177 417.125 257.9 415.719L256.104 414.963C250.92 412.796 247.476 410.082 247.476 404.344C247.476 399.058 251.582 395.034 257.998 395.034C262.566 395.034 265.849 396.594 268.216 400.677L262.621 404.201C261.389 402.034 260.061 401.181 257.998 401.181C255.893 401.181 254.559 402.49 254.559 404.201C254.559 406.315 255.894 407.171 258.977 408.481L260.773 409.236C266.877 411.803 270.324 414.421 270.324 420.307C270.324 426.652 265.243 430.128 258.419 430.128C251.746 430.128 247.436 427.009 245.326 422.921L251.165 419.594ZM225.785 420.204C226.914 422.169 227.941 423.829 230.409 423.829C232.769 423.829 234.259 422.923 234.259 419.401V395.437H241.443V419.496C241.443 426.794 237.081 430.115 230.715 430.115C224.962 430.115 221.631 427.195 219.937 423.678L225.785 420.204Z" fill="black"/>
</g>
<g clip-path="url(#clip1)">
<path d="M449.233 63H387.709C383.586 63 380.243 66.2792 380.243 70.3242V130.676C380.243 134.721 383.586 138 387.709 138H449.233C453.356 138 456.699 134.721 456.699 130.676V70.3242C456.699 66.2792 453.356 63 449.233 63Z" fill="#3178C6"/>
<path d="M449.233 63H387.709C383.586 63 380.243 66.2792 380.243 70.3242V130.676C380.243 134.721 383.586 138 387.709 138H449.233C453.356 138 456.699 134.721 456.699 130.676V70.3242C456.699 66.2792 453.356 63 449.233 63Z" fill="#3178C6"/>
<path fill-rule="evenodd" clip-rule="evenodd" d="M427.571 122.681V130.014C428.786 130.626 430.223 131.084 431.883 131.389C433.542 131.695 435.291 131.848 437.129 131.848C438.921 131.848 440.623 131.68 442.236 131.343C443.848 131.007 445.262 130.454 446.478 129.682C447.693 128.911 448.655 127.902 449.364 126.657C450.073 125.412 450.427 123.873 450.427 122.04C450.427 120.71 450.225 119.546 449.82 118.545C449.414 117.544 448.83 116.654 448.067 115.875C447.303 115.096 446.388 114.397 445.321 113.778C444.254 113.16 443.05 112.575 441.71 112.025C440.728 111.628 439.848 111.242 439.069 110.868C438.29 110.494 437.628 110.112 437.083 109.722C436.537 109.333 436.117 108.92 435.821 108.485C435.525 108.049 435.377 107.557 435.377 107.007C435.377 106.503 435.509 106.048 435.774 105.643C436.039 105.238 436.413 104.891 436.896 104.601C437.379 104.31 437.971 104.085 438.672 103.925C439.373 103.764 440.152 103.684 441.009 103.684C441.632 103.684 442.29 103.73 442.984 103.821C443.677 103.913 444.374 104.054 445.075 104.245C445.777 104.436 446.458 104.677 447.12 104.967C447.782 105.258 448.394 105.594 448.955 105.976V99.1236C447.818 98.6959 446.575 98.3789 445.227 98.1727C443.88 97.9664 442.333 97.8633 440.588 97.8633C438.812 97.8633 437.129 98.0505 435.54 98.4248C433.951 98.799 432.553 99.3834 431.345 100.178C430.138 100.972 429.183 101.984 428.482 103.214C427.781 104.444 427.431 105.914 427.431 107.625C427.431 109.81 428.073 111.674 429.359 113.217C430.644 114.76 432.595 116.066 435.213 117.136C436.241 117.548 437.2 117.953 438.088 118.35C438.976 118.747 439.743 119.16 440.389 119.588C441.036 120.015 441.546 120.481 441.92 120.986C442.294 121.49 442.481 122.062 442.481 122.704C442.481 123.178 442.364 123.617 442.131 124.022C441.897 124.427 441.542 124.778 441.067 125.076C440.592 125.374 440 125.607 439.291 125.775C438.582 125.943 437.753 126.027 436.802 126.027C435.182 126.027 433.577 125.748 431.988 125.191C430.399 124.633 428.926 123.797 427.571 122.681V122.681ZM415.003 104.614H424.593V98.5957H397.863V104.614H407.406V131.408H415.003V104.614Z" fill="white"/>
</g>
<defs>
<clipPath id="clip0">
<rect width="76.4563" height="75" fill="white" transform="translate(199.806 361)"/>
</clipPath>
<clipPath id="clip1">
<rect width="76.4563" height="75" fill="white" transform="translate(380.243 63)"/>
</clipPath>
</defs>
</svg>
