<svg width="487" height="439" viewBox="0 0 487 439" fill="none" xmlns="http://www.w3.org/2000/svg">
<g clip-path="url(#clip0)">
<path d="M107.756 76.8494C102.517 73.3521 93.2497 76.4827 83.5751 84.3078C74.8439 75.1841 66.0104 70.7522 60.4181 73.4742C59.1185 74.0944 58.0247 75.1045 57.1477 76.4183L60.7428 78.8181C61.2286 78.0902 61.7648 77.6011 62.3668 77.2928C65.0619 75.9785 70.4731 78.2407 76.145 83.08C77.5443 84.2655 78.9498 85.6161 80.3457 87.0509C77.5003 89.638 74.6417 92.6286 71.8765 95.9331C67.4672 96.08 63.279 96.4892 59.4191 97.1396C57.9801 88.7171 58.5384 82.0855 60.7369 78.792L57.1419 76.3923C54.2355 80.7463 53.5895 88.5566 55.2234 97.979C45.9269 100.106 38.9942 103.718 36.0875 108.073L39.6825 110.473C41.8705 107.195 47.7754 104.109 56.0737 102.186C56.9637 105.985 58.176 109.999 59.7526 114.096C57.7507 117.933 56.0852 121.719 54.8033 125.35C52.9481 124.638 51.2047 123.864 49.5786 123.053C42.9236 119.687 38.7488 115.572 38.9022 112.584C38.9291 111.915 39.2124 111.212 39.6986 110.483L36.1036 108.084C35.2157 109.414 34.7026 110.811 34.6176 112.265C34.259 118.458 41.7341 124.89 53.4875 129.416C50.0081 141.332 50.6763 151.048 55.8995 154.535C61.1388 158.032 70.4061 154.902 80.0809 147.077C88.812 156.201 97.6451 160.632 103.238 157.91C104.537 157.29 105.631 156.28 106.518 154.95C109.425 150.595 110.071 142.786 108.438 133.363C117.734 131.236 124.667 127.624 127.574 123.269C128.461 121.939 128.974 120.542 129.06 119.088C129.418 112.895 121.943 106.463 110.189 101.937C113.664 90.0635 112.98 80.336 107.756 76.8494ZM83.2415 90.2886C84.93 92.2627 86.5878 94.4225 88.1823 96.6769C86.4593 96.4653 84.7149 96.2856 82.9287 96.1686C81.1526 96.0363 79.3773 95.9728 77.6342 95.9309C79.4735 93.9085 81.341 92.0186 83.2415 90.2886ZM95.5693 109.001C96.9211 111.689 98.1388 114.334 99.1797 116.929C97.8146 119.428 96.3314 121.894 94.7247 124.301C93.1285 126.692 91.4197 129.008 89.6618 131.222C86.8661 131.256 83.9626 131.172 80.9779 130.965C78.0627 130.759 75.1893 130.42 72.3632 129.976C70.8583 127.552 69.438 125.002 68.119 122.404C66.7671 119.717 65.5492 117.072 64.5082 114.478C65.8735 111.978 67.3568 109.512 68.9635 107.105C70.5595 104.714 72.2684 102.398 74.0263 100.184C76.8221 100.15 79.7255 100.234 82.7102 100.441C85.6252 100.647 88.4986 100.986 91.3248 101.43C92.819 103.87 94.2499 106.405 95.5693 109.001ZM96.8876 102.488C99.6187 103.075 102.265 103.789 104.762 104.586C103.893 107.005 102.87 109.48 101.697 111.97C100.974 110.366 100.218 108.74 99.3983 107.14C98.595 105.551 97.7439 103.998 96.8876 102.488ZM103.37 130.027C100.84 130.466 98.1321 130.788 95.2735 130.985C96.2888 129.603 97.3099 128.179 98.2929 126.706C99.2864 125.218 100.237 123.724 101.119 122.229C102.053 124.913 102.795 127.537 103.37 130.027ZM86.0111 135.47C84.1716 137.492 82.3044 139.382 80.4038 141.112C78.7153 139.138 77.0575 136.978 75.463 134.723C77.1861 134.935 78.9303 135.115 80.7167 135.232C82.5032 135.348 84.268 135.428 86.0111 135.47ZM60.2747 101.374C62.8055 100.934 65.5133 100.613 68.3721 100.415C67.3563 101.797 66.3353 103.222 65.3524 104.694C64.3587 106.183 63.4079 107.677 62.5267 109.172C61.5919 106.488 60.85 103.864 60.2747 101.374ZM61.9481 119.43C62.6715 121.034 63.4271 122.66 64.2467 124.26C65.0502 125.85 65.8853 127.391 66.7416 128.902C64.0106 128.315 61.3641 127.601 58.8668 126.804C59.7517 124.396 60.7751 121.92 61.9481 119.43ZM72.5656 147.233C66.3895 151.214 60.777 152.709 58.246 151.02C55.715 149.33 54.9276 143.563 56.2512 136.343C56.5637 134.583 57.0253 132.739 57.5509 130.87C61.3131 132.076 65.3945 133.084 69.7468 133.86C72.1276 137.556 74.6179 140.912 77.1695 143.897C75.6233 145.131 74.0817 146.254 72.5656 147.233ZM101.289 154.092C98.5942 155.406 93.1824 153.144 87.5107 148.305C86.1113 147.119 84.7058 145.769 83.3102 144.333C86.1557 141.746 89.0141 138.756 91.7793 135.451C96.1888 135.305 100.377 134.895 104.237 134.245C105.676 142.667 105.118 149.299 102.919 152.593C102.427 153.294 101.881 153.8 101.289 154.092ZM114.077 108.331C120.732 111.698 124.907 115.813 124.753 118.8C124.727 119.469 124.444 120.173 123.957 120.902C121.769 124.179 115.864 127.265 107.566 129.188C106.676 125.389 105.464 121.375 103.887 117.278C105.889 113.442 107.554 109.655 108.836 106.024C110.708 106.746 112.462 107.505 114.077 108.331ZM107.394 95.0572C107.082 96.8172 106.62 98.6608 106.094 100.531C102.332 99.3242 98.2509 98.316 93.8983 97.5401C91.5178 93.8447 89.0275 90.4883 86.4757 87.5034C88.0219 86.2692 89.5636 85.1466 91.0901 84.1517C97.2663 80.1708 102.879 78.6754 105.41 80.3649C107.93 82.0704 108.718 87.8379 107.394 95.0572Z" fill="#61DAFB"/>
<path d="M87.1593 120.06C90.2515 116.381 89.7222 110.848 85.9777 107.7C82.233 104.552 76.6911 104.981 73.5989 108.66C70.5067 112.338 71.0356 117.871 74.7802 121.019C78.5248 124.167 84.0671 123.738 87.1593 120.06Z" fill="#61DAFB"/>
</g>
<g clip-path="url(#clip1)">
<path d="M214 435.955L290.41 438.612L293.017 363.657L216.607 361L214 435.955Z" fill="#F7DF1E"/>
<path d="M241.118 378.268C239.665 375.75 237.726 373.868 234.184 373.745C231.209 373.642 229.258 375.034 229.188 377.049C229.104 379.465 231.026 380.388 234.252 381.907L236.021 382.725C241.127 385.07 244.475 387.903 244.275 393.637C244.092 398.92 239.849 402.799 233.436 402.576C228.871 402.417 225.644 400.744 223.42 396.581L229.134 393.254C230.29 395.462 231.588 396.361 233.65 396.433C235.753 396.506 237.132 395.244 237.191 393.534C237.265 391.421 235.96 390.519 232.925 389.103L231.156 388.287C225.145 385.508 221.791 382.772 221.996 376.89C222.216 370.548 227.415 367.251 234.235 367.488C240.904 367.72 245.103 370.987 247.069 375.146L241.118 378.268ZM266.504 378.54C265.444 376.538 264.476 374.843 262.009 374.757C259.65 374.675 258.13 375.528 258.008 379.049L257.175 402.999L249.995 402.749L250.831 378.704C251.085 371.411 255.559 368.243 261.922 368.464C267.671 368.664 270.899 371.698 272.47 375.272L266.504 378.54Z" fill="black"/>
</g>
<g clip-path="url(#clip2)">
<path d="M482.663 105.979L449.266 54.3088C447.028 50.8457 442.459 49.8182 439.062 52.014L388.376 84.7749C384.979 86.9707 384.04 91.5581 386.278 95.0213L419.675 146.691C421.914 150.154 426.482 151.182 429.879 148.986L480.565 116.225C483.962 114.029 484.902 109.442 482.663 105.979Z" fill="#3178C6"/>
<path d="M482.663 105.979L449.266 54.3088C447.028 50.8457 442.459 49.8182 439.062 52.014L388.376 84.7749C384.979 86.9707 384.04 91.5581 386.278 95.0213L419.675 146.691C421.914 150.154 426.482 151.182 429.879 148.986L480.565 116.225C483.962 114.029 484.902 109.442 482.663 105.979Z" fill="#3178C6"/>
<path fill-rule="evenodd" clip-rule="evenodd" d="M420.782 120.183L414.623 124.164C414.77 125.516 415.165 126.972 415.809 128.532C416.453 130.091 417.274 131.643 418.272 133.187C419.245 134.692 420.31 136.03 421.468 137.202C422.625 138.374 423.858 139.26 425.166 139.862C426.473 140.464 427.842 140.725 429.273 140.644C430.703 140.564 432.188 140.026 433.728 139.031C434.844 138.309 435.713 137.507 436.333 136.623C436.953 135.74 437.384 134.766 437.624 133.702C437.864 132.638 437.954 131.49 437.894 130.258C437.834 129.025 437.672 127.697 437.406 126.274C437.207 125.234 437.053 124.285 436.945 123.427C436.836 122.57 436.797 121.807 436.829 121.137C436.86 120.468 436.978 119.89 437.183 119.405C437.388 118.921 437.721 118.529 438.183 118.23C438.606 117.956 439.06 117.821 439.544 117.824C440.028 117.826 440.523 117.952 441.029 118.2C441.535 118.448 442.045 118.823 442.56 119.324C443.076 119.826 443.566 120.437 444.031 121.157C444.369 121.68 444.688 122.258 444.988 122.89C445.287 123.522 445.547 124.184 445.767 124.877C445.987 125.569 446.155 126.272 446.271 126.986C446.387 127.7 446.436 128.396 446.42 129.074L452.174 125.355C451.916 124.167 451.508 122.952 450.95 121.708C450.391 120.464 449.638 119.109 448.691 117.644C447.727 116.152 446.656 114.84 445.479 113.709C444.302 112.578 443.053 111.72 441.73 111.137C440.407 110.555 439.039 110.303 437.626 110.381C436.212 110.46 434.787 110.964 433.35 111.893C431.515 113.079 430.299 114.63 429.701 116.547C429.103 118.464 429.065 120.812 429.588 123.591C429.799 124.679 429.98 125.703 430.128 126.665C430.277 127.626 430.347 128.494 430.338 129.27C430.33 130.045 430.216 130.726 429.995 131.314C429.775 131.902 429.395 132.37 428.856 132.718C428.459 132.975 428.026 133.115 427.559 133.139C427.093 133.162 426.605 133.055 426.097 132.818C425.589 132.581 425.072 132.21 424.546 131.706C424.02 131.202 423.499 130.55 422.983 129.752C422.103 128.391 421.466 126.892 421.072 125.255C420.678 123.618 420.581 121.927 420.782 120.183V120.183ZM429.134 99.8209L434.34 107.875L439.394 104.608L424.884 82.1594L419.83 85.4261L425.01 93.4407L402.507 107.986L406.631 114.366L429.134 99.8209Z" fill="white"/>
</g>
<defs>
<clipPath id="clip0">
<rect width="127.427" height="100" fill="white" transform="translate(0.441589 129.594) rotate(-49.9468)"/>
</clipPath>
<clipPath id="clip1">
<rect width="76.4563" height="75" fill="white" transform="translate(290.41 438.612) rotate(-178.008)"/>
</clipPath>
<clipPath id="clip2">
<rect width="76.4563" height="75" fill="white" transform="translate(445.213 48.0382) rotate(57.1233)"/>
</clipPath>
</defs>
</svg>
