<svg width="630" height="630" viewBox="0 0 630 630" fill="none" xmlns="http://www.w3.org/2000/svg">
<circle cx="315" cy="315" r="315" fill="#E0EBE8"/>
<g clip-path="url(#clip0)">
<path d="M420.557 359.448V384.828C420.557 387.686 418.243 390 415.385 390H226.615C223.757 390 221.443 387.686 221.443 384.828V359.448C221.443 332.819 243.029 311.247 269.664 311.24C279.076 311.234 287.364 306.391 292.135 299.048C296.928 291.682 296.434 285.276 296.434 280.099L296.531 279.86C273.323 270.254 256.999 247.388 256.999 220.708V218.684C247.784 218.684 240.837 211.402 240.837 202.82V175.952C240.63 166.598 241.057 133.608 264.886 110.639C292.594 83.9334 336.502 86.1185 368.309 100.406C369.343 100.871 369.311 102.351 368.264 102.785L359.969 106.198C358.728 106.709 358.993 108.538 360.325 108.68L364.353 109.114C386.022 111.428 404.052 124.364 413.045 139.692C413.129 139.84 413.103 140.034 412.98 140.164C405.817 147.469 401.809 157.302 401.809 167.542V201.883C401.809 211.147 394.304 218.684 385.001 218.684V220.708C385.001 247.388 368.677 270.254 345.469 279.86L345.566 280.099C345.566 285.13 345.032 291.62 349.865 299.048C354.636 306.391 362.924 311.234 372.336 311.24C398.971 311.247 420.557 332.819 420.557 359.448Z" fill="#FFD6A6"/>
<path d="M413.042 139.691C413.128 139.838 413.102 140.035 412.977 140.163C405.819 147.47 401.809 157.305 401.809 167.542V201.883C401.809 211.146 394.306 218.685 385.001 218.685C385.001 199.122 385.012 188.898 385.008 183.403C385.005 179.934 381.653 177.44 378.338 178.46C367.915 181.667 355.758 183.319 342.981 180.543C320.496 175.655 314.129 166.844 295.788 162.441C275.295 157.528 256.709 173.225 256.838 193.304C256.877 199.905 256.987 208.154 257 218.685C247.784 218.685 240.838 211.402 240.838 202.82V175.953C240.631 166.598 241.058 133.609 264.887 110.639C292.592 83.933 336.505 86.1194 368.306 100.408C369.341 100.873 369.314 102.354 368.264 102.785L359.969 106.2C358.73 106.711 358.991 108.538 360.324 108.681L364.353 109.114C386.024 111.431 404.053 124.362 413.042 139.691Z" fill="#42434D"/>
<path d="M378.337 178.46C381.653 177.44 385.005 179.931 385.007 183.4C385.012 189.086 385 199.827 385 220.708C385 247.388 368.677 270.254 345.468 279.86C303.501 297.281 256.998 266.333 256.998 220.708C256.998 208.909 256.88 200.526 256.837 193.304C256.708 173.224 275.294 157.528 295.787 162.441C314.127 166.844 320.495 175.655 342.979 180.543C355.757 183.319 367.915 181.667 378.337 178.46Z" fill="#FFDFBA"/>
<path d="M420.557 359.448V384.828C420.557 387.684 418.241 390 415.385 390H226.615C223.759 390 221.443 387.684 221.443 384.828V359.448C221.443 332.819 243.032 311.25 269.66 311.24C279.076 311.237 287.365 306.389 292.135 299.048C308.784 313.271 333.206 313.28 349.865 299.048C354.634 306.389 362.924 311.237 372.34 311.24C398.968 311.25 420.557 332.819 420.557 359.448Z" fill="#55A086"/>
<path d="M373.364 379.01H357.849C354.993 379.01 352.677 376.694 352.677 373.838C352.677 370.982 354.993 368.667 357.849 368.667H373.364C376.221 368.667 378.536 370.982 378.536 373.838C378.536 376.694 376.221 379.01 373.364 379.01Z" fill="#D84B4B"/>
<path d="M296.268 327.809C293.878 328.561 291.314 328.976 288.565 329C261.868 329.235 240.101 350.344 240.101 377.042V381.902C240.101 386.9 236.049 390.952 231.051 390.952H227.172C224.316 390.952 222 388.637 222 385.781V360.4C222 333.772 243.589 312.202 270.217 312.193C279.632 312.189 287.922 307.341 292.692 300C294.615 301.642 296.673 303.118 298.841 304.41C308.379 310.093 306.859 324.479 296.268 327.809Z" fill="#478871"/>
<path d="M345.912 327.809C348.303 328.561 350.867 328.976 353.615 329C380.312 329.235 402.079 350.344 402.079 377.042V381.902C402.079 386.9 406.131 390.952 411.13 390.952H415.008C417.865 390.952 420.18 388.637 420.18 385.781V360.4C420.18 333.772 398.591 312.202 371.963 312.193C362.548 312.189 354.258 307.341 349.488 300C347.566 301.642 345.507 303.118 343.339 304.41C333.802 310.093 335.321 324.479 345.912 327.809Z" fill="#3E7763"/>
<path d="M346.297 290.715C330.369 297.382 312.866 297.899 295.703 290.715C296.58 287.078 296.434 284.722 296.434 280.1L296.531 279.86C312.099 286.322 329.87 286.335 345.469 279.86L345.566 280.1C345.566 284.724 345.42 287.079 346.297 290.715Z" fill="#F7C388"/>
<path d="M368.264 102.785C362.169 105.291 360.82 106.174 358.02 105.713C306.725 97.2689 266.333 124.09 260.807 176.501C260.71 177.421 260.474 178.324 260.066 179.154C256.132 187.163 256.832 193.09 256.915 202.943C257.002 213.31 241.381 213.974 240.857 203.62C240.824 202.974 240.837 204.678 240.837 175.952C240.63 166.598 241.057 133.608 264.886 110.639C292.594 83.9334 336.502 86.1185 368.309 100.406C369.343 100.871 369.311 102.351 368.264 102.785Z" fill="#4D4E59"/>
<path d="M306.517 262.043C317.036 268.621 308.734 284.763 297.221 280.142C273.575 270.653 257 247.599 257 220.709C257 208.896 256.881 200.555 256.838 193.305C256.797 186.813 258.71 180.781 262.011 175.755C266.16 169.439 276.177 172.191 276.232 180.375C276.275 187.651 276.394 195.954 276.394 207.779C276.393 231.373 288.798 250.962 306.517 262.043Z" fill="#FFEBD2"/>
</g>
<defs>
<clipPath id="clip0">
<rect width="300" height="300" fill="white" transform="translate(171 90)"/>
</clipPath>
</defs>
</svg>
