<svg width="50" height="50" viewBox="0 0 50 50" fill="none" xmlns="http://www.w3.org/2000/svg">
<path d="M25 50C38.8071 50 50 38.8071 50 25C50 11.1929 38.8071 0 25 0C11.1929 0 0 11.1929 0 25C0 38.8071 11.1929 50 25 50Z" fill="#E0EBE8"/>
<path d="M32.8027 34.3848V36.3991C32.8027 36.6259 32.619 36.8095 32.3922 36.8095H17.4105C17.1837 36.8095 17 36.6259 17 36.3991V34.3848C17 32.2714 18.7132 30.5593 20.8271 30.5587C21.574 30.5583 22.2318 30.1739 22.6105 29.5911C22.9909 29.0065 22.9517 28.4981 22.9517 28.0872L22.9594 28.0683C21.1175 27.3059 19.8219 25.4911 19.8219 23.3737V23.213C19.0906 23.213 18.5392 22.6351 18.5392 21.954V19.8216C18.5228 19.0792 18.5567 16.461 20.4479 14.638C22.6469 12.5185 26.1317 12.692 28.656 13.8259C28.7381 13.8628 28.7356 13.9802 28.6525 14.0147L27.9941 14.2856C27.8956 14.3261 27.9167 14.4713 28.0224 14.4825L28.3421 14.517C30.0618 14.7006 31.4928 15.7273 32.2065 16.9438C32.2132 16.9556 32.2111 16.971 32.2014 16.9813C31.6329 17.561 31.3148 18.3414 31.3148 19.1541V21.8796C31.3148 22.6148 30.7191 23.213 29.9808 23.213V23.3737C29.9808 25.4911 28.6852 27.3059 26.8433 28.0683L26.851 28.0872C26.851 28.4865 26.8087 29.0016 27.1922 29.5911C27.5709 30.1739 28.2287 30.5583 28.9756 30.5587C31.0895 30.5593 32.8027 32.2714 32.8027 34.3848Z" fill="#FFD6A6"/>
<path d="M32.2063 16.9443C32.2131 16.9559 32.211 16.9716 32.2011 16.9817C31.633 17.5616 31.3148 18.3422 31.3148 19.1547V21.8801C31.3148 22.6153 30.7193 23.2136 29.9808 23.2136C29.9808 21.661 29.9817 20.8496 29.9814 20.4135C29.9811 20.1381 29.7151 19.9402 29.452 20.0212C28.6248 20.2757 27.6599 20.4068 26.6459 20.1865C24.8614 19.7985 24.356 19.0993 22.9004 18.7498C21.274 18.3599 19.7989 19.6057 19.8091 21.1993C19.8122 21.7232 19.821 22.3778 19.822 23.2136C19.0906 23.2136 18.5393 22.6356 18.5393 21.9545V19.8222C18.5229 19.0797 18.5568 16.4616 20.4479 14.6385C22.6468 12.519 26.1319 12.6925 28.6558 13.8266C28.7379 13.8635 28.7358 13.981 28.6525 14.0152L27.9941 14.2862C27.8958 14.3268 27.9165 14.4718 28.0223 14.4831L28.3421 14.5175C30.062 14.7014 31.4929 15.7277 32.2063 16.9443Z" fill="#42434D"/>
<path d="M29.4519 20.0207C29.7151 19.9397 29.9811 20.1374 29.9813 20.4127C29.9817 20.864 29.9807 21.7165 29.9807 23.3737C29.9807 25.4911 28.6852 27.3059 26.8432 28.0683C23.5125 29.4509 19.8218 26.9947 19.8218 23.3737C19.8218 22.4373 19.8125 21.7719 19.809 21.1988C19.7988 19.6051 21.2739 18.3594 22.9003 18.7493C24.3559 19.0988 24.8613 19.798 26.6457 20.186C27.6598 20.4063 28.6248 20.2752 29.4519 20.0207Z" fill="#FFDFBA"/>
<path d="M32.8027 34.3848V36.3991C32.8027 36.6257 32.6189 36.8095 32.3922 36.8095H17.4105C17.1838 36.8095 17 36.6257 17 36.3991V34.3848C17 32.2714 18.7134 30.5595 20.8267 30.5587C21.574 30.5585 22.2319 30.1737 22.6105 29.5911C23.9318 30.7199 25.8701 30.7206 27.1922 29.5911C27.5707 30.1737 28.2287 30.5585 28.976 30.5587C31.0893 30.5595 32.8027 32.2714 32.8027 34.3848Z" fill="#55A086"/>
<path d="M29.0572 35.9373H27.8259C27.5992 35.9373 27.4154 35.7535 27.4154 35.5268C27.4154 35.3002 27.5992 35.1164 27.8259 35.1164H29.0572C29.284 35.1164 29.4677 35.3002 29.4677 35.5268C29.4677 35.7535 29.284 35.9373 29.0572 35.9373Z" fill="#D84B4B"/>
<path d="M22.9385 31.8737C22.7488 31.9334 22.5453 31.9664 22.3271 31.9683C20.2083 31.9869 18.4808 33.6622 18.4808 35.7811V36.1668C18.4808 36.5635 18.1592 36.8851 17.7625 36.8851H17.4547C17.228 36.8851 17.0442 36.7014 17.0442 36.4747V34.4603C17.0442 32.347 18.7576 30.6351 20.871 30.6344C21.6182 30.6341 22.2761 30.2493 22.6547 29.6667C22.8073 29.797 22.9706 29.9141 23.1427 30.0167C23.8997 30.4677 23.7791 31.6095 22.9385 31.8737Z" fill="#478871"/>
<path d="M26.8785 31.8737C27.0682 31.9334 27.2717 31.9664 27.4898 31.9683C29.6086 31.9869 31.3362 33.6622 31.3362 35.7811V36.1668C31.3362 36.5635 31.6578 36.8851 32.0545 36.8851H32.3623C32.589 36.8851 32.7728 36.7014 32.7728 36.4747V34.4603C32.7728 32.347 31.0594 30.6351 28.946 30.6344C28.1988 30.6341 27.5409 30.2493 27.1623 29.6667C27.0097 29.797 26.8463 29.9141 26.6743 30.0167C25.9174 30.4677 26.0379 31.6095 26.8785 31.8737Z" fill="#3E7763"/>
<path d="M26.909 28.9298C25.6449 29.4589 24.2558 29.4999 22.8936 28.9298C22.9632 28.6411 22.9517 28.4541 22.9517 28.0873L22.9594 28.0683C24.1949 28.5811 25.6053 28.5822 26.8433 28.0683L26.851 28.0873C26.851 28.4543 26.8394 28.6412 26.909 28.9298Z" fill="#F7C388"/>
<path d="M28.6525 14.0147C28.1687 14.2136 28.0617 14.2837 27.8394 14.2471C23.7684 13.5769 20.5627 15.7056 20.1241 19.8652C20.1164 19.9382 20.0977 20.0098 20.0653 20.0757C19.7531 20.7114 19.8086 21.1817 19.8152 21.9637C19.8221 22.7865 18.5824 22.8392 18.5408 22.0175C18.5382 21.9662 18.5392 22.1014 18.5392 19.8216C18.5228 19.0792 18.5567 16.461 20.4479 14.638C22.6469 12.5185 26.1317 12.692 28.656 13.8259C28.7381 13.8628 28.7355 13.9802 28.6525 14.0147Z" fill="#4D4E59"/>
<path d="M23.7519 26.6542C24.5868 27.1763 23.9279 28.4574 23.0141 28.0906C21.1375 27.3375 19.822 25.5079 19.822 23.3737C19.822 22.4362 19.8125 21.7742 19.8091 21.1988C19.8059 20.6836 19.9577 20.2049 20.2197 19.806C20.549 19.3047 21.344 19.5231 21.3483 20.1726C21.3518 20.7501 21.3612 21.4091 21.3612 22.3475C21.3611 24.2201 22.3456 25.7748 23.7519 26.6542Z" fill="#FFEBD2"/>
<path d="M21.8136 21.075H23.1864C23.5943 21.075 23.925 21.4057 23.925 21.8136C23.925 22.4274 23.4274 22.925 22.8136 22.925H22.1864C21.5726 22.925 21.075 22.4274 21.075 21.8136C21.075 21.4057 21.4057 21.075 21.8136 21.075Z" fill="#CFE5FF" fill-opacity="0.8" stroke="black" stroke-width="0.15"/>
<path d="M26.8136 21.075H28.1864C28.5943 21.075 28.925 21.4057 28.925 21.8136C28.925 22.4274 28.4274 22.925 27.8136 22.925H27.1864C26.5726 22.925 26.075 22.4274 26.075 21.8136C26.075 21.4057 26.4057 21.075 26.8136 21.075Z" fill="#CFE5FF" fill-opacity="0.7" stroke="black" stroke-width="0.15"/>
<line x1="24" y1="21.925" x2="26" y2="21.925" stroke="black" stroke-width="0.15"/>
<circle cx="22.5" cy="22" r="0.5" fill="#592626" fill-opacity="0.1"/>
<circle cx="27.5" cy="22" r="0.5" fill="#592626" fill-opacity="0.1"/>
</svg>
