<svg width="300" height="320" viewBox="0 0 300 320" fill="none" xmlns="http://www.w3.org/2000/svg">
<g clip-path="url(#clip0)" filter="url(#filter0_d)">
<path d="M249.557 274.448V299.828C249.557 302.686 247.243 305 244.385 305H55.6148C52.7574 305 50.443 302.686 50.443 299.828V274.448C50.443 247.819 72.0288 226.247 98.6635 226.24C108.076 226.234 116.364 221.391 121.135 214.048C125.928 206.682 125.434 200.276 125.434 195.099L125.531 194.86C102.323 185.254 85.9991 162.388 85.9991 135.708V133.684C76.7836 133.684 69.8373 126.402 69.8373 117.82V90.9525C69.6304 81.598 70.0571 48.6085 93.8861 25.6393C121.594 -1.06658 165.502 1.11851 197.309 15.4056C198.343 15.871 198.311 17.3515 197.264 17.7846L188.969 21.198C187.728 21.7087 187.993 23.5382 189.325 23.6804L193.353 24.1136C215.022 26.4279 233.052 39.3639 242.045 54.6918C242.129 54.8405 242.103 55.0344 241.98 55.1637C234.817 62.4689 230.809 72.3017 230.809 82.5419V116.883C230.809 126.147 223.304 133.684 214.001 133.684V135.708C214.001 162.388 197.677 185.254 174.469 194.86L174.566 195.099C174.566 200.13 174.032 206.62 178.865 214.048C183.636 221.391 191.924 226.234 201.336 226.24C227.971 226.247 249.557 247.819 249.557 274.448Z" fill="#FFD6A6"/>
<path d="M242.042 54.6914C242.128 54.8382 242.102 55.0347 241.977 55.1627C234.819 62.4704 230.809 72.3046 230.809 82.5422V116.883C230.809 126.146 223.306 133.685 214.001 133.685C214.001 114.122 214.012 103.898 214.008 98.4034C214.005 94.9338 210.653 92.4403 207.338 93.4605C196.915 96.667 184.758 98.3194 171.981 95.5427C149.496 90.6554 143.129 81.844 124.788 77.4415C104.295 72.5283 85.7088 88.2247 85.8381 108.304C85.8769 114.905 85.9868 123.154 85.9998 133.685C76.7843 133.685 69.8379 126.402 69.8379 117.82V90.9528C69.631 81.5983 70.0577 48.6088 93.8867 25.6396C121.592 -1.06692 165.505 1.11945 197.306 15.4078C198.341 15.8726 198.314 17.3537 197.264 17.7855L188.969 21.2002C187.729 21.7109 187.991 23.5385 189.324 23.6814L193.353 24.1139C215.024 26.4308 233.053 39.3622 242.042 54.6914Z" fill="#42434D"/>
<path d="M207.337 93.4602C210.653 92.4401 214.005 94.9309 214.007 98.3999C214.012 104.086 214 114.827 214 135.708C214 162.388 197.677 185.254 174.468 194.86C132.501 212.281 85.9984 181.333 85.9984 135.708C85.9984 123.909 85.8795 115.526 85.8368 108.304C85.7075 88.2244 104.294 72.528 124.787 77.4412C143.127 81.8437 149.495 90.6551 171.979 95.5425C184.757 98.3184 196.915 96.6667 207.337 93.4602Z" fill="#FFDFBA"/>
<path d="M249.557 274.448V299.828C249.557 302.684 247.241 305 244.385 305H55.6148C52.7587 305 50.443 302.684 50.443 299.828V274.448C50.443 247.819 72.032 226.25 98.6603 226.24C108.076 226.237 116.365 221.389 121.135 214.048C137.784 228.271 162.206 228.28 178.865 214.048C183.634 221.389 191.924 226.237 201.34 226.24C227.968 226.25 249.557 247.819 249.557 274.448Z" fill="#42434D"/>
<path d="M202.364 294.01H186.849C183.993 294.01 181.677 291.694 181.677 288.838C181.677 285.982 183.993 283.666 186.849 283.666H202.364C205.221 283.666 207.536 285.982 207.536 288.838C207.536 291.694 205.221 294.01 202.364 294.01Z" fill="white"/>
<path d="M124.711 241.857C122.321 242.609 119.757 243.023 117.008 243.047C90.3111 243.282 68.5443 264.392 68.5443 291.09V295.949C68.5443 300.948 64.4922 305 59.4937 305H55.6148C52.7587 305 50.443 302.684 50.443 299.828V274.448C50.443 247.819 72.032 226.25 98.6603 226.24C108.076 226.237 116.365 221.389 121.135 214.048C123.058 215.69 125.116 217.166 127.284 218.458C136.822 224.141 135.302 238.527 124.711 241.857Z" fill="#4D4E59"/>
<path d="M175.289 241.857C177.679 242.609 180.243 243.023 182.992 243.047C209.689 243.282 231.456 264.392 231.456 291.09V295.949C231.456 300.948 235.508 305 240.506 305H244.385C247.241 305 249.557 302.684 249.557 299.828V274.448C249.557 247.819 227.968 226.25 201.34 226.24C191.924 226.237 183.635 221.389 178.865 214.048C176.942 215.69 174.884 217.166 172.716 218.458C163.179 224.141 164.698 238.527 175.289 241.857Z" fill="#2C2C33"/>
<path d="M175.297 205.715C159.369 212.382 141.866 212.899 124.703 205.715C125.58 202.078 125.434 199.722 125.434 195.099L125.531 194.86C141.099 201.322 158.87 201.335 174.469 194.86L174.566 195.099C174.566 199.724 174.42 202.079 175.297 205.715Z" fill="#F7C388"/>
<path d="M197.264 17.7846C191.169 20.291 189.82 21.1741 187.02 20.7131C135.725 12.2689 95.3329 39.0898 89.8068 91.5013C89.7099 92.4213 89.4739 93.3244 89.066 94.1545C85.1322 102.163 85.8317 108.09 85.9151 117.943C86.0023 128.31 70.3809 128.974 69.8573 118.62C69.8243 117.974 69.8373 119.678 69.8373 90.9525C69.6304 81.598 70.0571 48.6085 93.8861 25.6393C121.594 -1.06658 165.502 1.11851 197.309 15.4056C198.343 15.871 198.311 17.3515 197.264 17.7846Z" fill="#4D4E59"/>
<path d="M135.517 177.043C146.036 183.621 137.734 199.763 126.221 195.142C102.575 185.653 85.9997 162.599 85.9997 135.709C85.9997 123.896 85.8808 115.555 85.8381 108.305C85.7974 101.813 87.7103 95.7811 91.0112 90.7554C95.1603 84.4387 105.177 87.1914 105.232 95.3751C105.275 102.651 105.394 110.954 105.394 122.779C105.393 146.373 117.798 165.962 135.517 177.043Z" fill="#FFEBD2"/>
</g>
<defs>
<filter id="filter0_d" x="-5" y="0" width="320" height="320" filterUnits="userSpaceOnUse" color-interpolation-filters="sRGB">
<feFlood flood-opacity="0" result="BackgroundImageFix"/>
<feColorMatrix in="SourceAlpha" type="matrix" values="0 0 0 0 0 0 0 0 0 0 0 0 0 0 0 0 0 0 127 0"/>
<feOffset dx="5" dy="5"/>
<feGaussianBlur stdDeviation="5"/>
<feColorMatrix type="matrix" values="0 0 0 0 0 0 0 0 0 0 0 0 0 0 0 0 0 0 0.25 0"/>
<feBlend mode="normal" in2="BackgroundImageFix" result="effect1_dropShadow"/>
<feBlend mode="normal" in="SourceGraphic" in2="effect1_dropShadow" result="shape"/>
</filter>
<clipPath id="clip0">
<rect width="300" height="300" fill="white" transform="translate(0 5)"/>
</clipPath>
</defs>
</svg>
