<svg width="100" height="100" viewBox="0 0 100 100" fill="none" xmlns="http://www.w3.org/2000/svg">
<g clip-path="url(#clip0)">
<g filter="url(#filter0_d)">
<path d="M83.1857 85.765V93.6962C83.1857 94.5894 82.4143 95.3125 81.4617 95.3125H18.5383C17.5858 95.3125 16.8143 94.5894 16.8143 93.6962V85.765C16.8143 77.4434 24.0096 70.7022 32.8878 70.7C36.0253 70.6981 38.788 69.1847 40.3783 66.89C41.976 64.5881 41.8113 62.5862 41.8113 60.9684L41.8437 60.8937C34.1077 57.8919 28.6664 50.7462 28.6664 42.4087V41.7762C25.5945 41.7762 23.2791 39.5006 23.2791 36.8187V28.4226C23.2101 25.4994 23.3524 15.1901 31.2954 8.01227C40.5313 -0.333316 55.1673 0.349524 65.7697 4.81424C66.1143 4.95968 66.1037 5.42233 65.7547 5.55768L62.9897 6.62436C62.576 6.78396 62.6643 7.35568 63.1083 7.40011L64.451 7.53549C71.674 8.25871 77.684 12.3012 80.6817 17.0912C80.7097 17.1376 80.701 17.1982 80.66 17.2386C78.2723 19.5215 76.9363 22.5943 76.9363 25.7943V36.5259C76.9363 39.4209 74.4347 41.7762 71.3337 41.7762V42.4087C71.3337 50.7462 65.8923 57.8919 58.1563 60.8937L58.1887 60.9684C58.1887 62.5406 58.0107 64.5687 59.6217 66.89C61.212 69.1847 63.9747 70.6981 67.112 70.7C75.9903 70.7022 83.1857 77.4434 83.1857 85.765Z" fill="#FFD6A6"/>
<path d="M80.6807 17.0915C80.7093 17.1374 80.7007 17.1988 80.659 17.2388C78.273 19.5225 76.9363 22.5956 76.9363 25.7949V36.5264C76.9363 39.4211 74.4353 41.777 71.3337 41.777C71.3337 35.6636 71.3373 32.4686 71.336 30.7515C71.335 29.6673 70.2177 28.8881 69.1127 29.2069C65.6383 30.2089 61.586 30.7253 57.327 29.8576C49.832 28.3303 47.7097 25.5767 41.596 24.2009C34.765 22.6655 28.5696 27.5707 28.6127 33.8455C28.6256 35.9083 28.6623 38.4861 28.6666 41.777C25.5948 41.777 23.2793 39.5011 23.2793 36.8192V28.4232C23.2103 25.4999 23.3526 15.1907 31.2956 8.01283C40.5307 -0.332959 55.1683 0.350281 65.7687 4.81539C66.1137 4.96064 66.1047 5.42348 65.7547 5.55842L62.9897 6.62552C62.5763 6.78511 62.6637 7.35624 63.108 7.40089L64.451 7.53605C71.6747 8.26008 77.6843 12.3011 80.6807 17.0915Z" fill="#42434D"/>
<path d="M69.1123 29.2063C70.2177 28.8875 71.335 29.6659 71.3357 30.75C71.3373 32.5269 71.3333 35.8834 71.3333 42.4087C71.3333 50.7462 65.8923 57.8919 58.156 60.8937C44.167 66.3378 28.6661 56.6666 28.6661 42.4087C28.6661 38.7216 28.6265 36.1019 28.6123 33.845C28.5692 27.5701 34.7647 22.665 41.5957 24.2004C47.709 25.5762 49.8317 28.3297 57.3263 29.857C61.5857 30.7245 65.6383 30.2083 69.1123 29.2063Z" fill="#FFDFBA"/>
<path d="M83.1857 85.765V93.6962C83.1857 94.5887 82.4137 95.3125 81.4617 95.3125H18.5383C17.5862 95.3125 16.8143 94.5887 16.8143 93.6962V85.765C16.8143 77.4434 24.0107 70.7031 32.8868 70.7C36.0253 70.699 38.7883 69.184 40.3783 66.89C45.928 71.3347 54.0687 71.3375 59.6217 66.89C61.2113 69.184 63.9747 70.699 67.1133 70.7C75.9893 70.7031 83.1857 77.4434 83.1857 85.765Z" fill="#42434D"/>
<path d="M67.4547 91.8781H62.283C61.331 91.8781 60.559 91.1544 60.559 90.2619C60.559 89.3694 61.331 88.6456 62.283 88.6456H67.4547C68.407 88.6456 69.1787 89.3694 69.1787 90.2619C69.1787 91.1544 68.407 91.8781 67.4547 91.8781Z" fill="white"/>
<path d="M41.5703 75.5803C40.7737 75.8153 39.919 75.9447 39.0027 75.9522C30.1037 76.0256 22.8481 82.6225 22.8481 90.9656V92.484C22.8481 94.0462 21.4974 95.3125 19.8312 95.3125H18.5383C17.5862 95.3125 16.8143 94.5887 16.8143 93.6962V85.765C16.8143 77.4434 24.0107 70.7031 32.8868 70.7C36.0253 70.699 38.7883 69.184 40.3783 66.89C41.0193 67.4031 41.7053 67.8644 42.428 68.2681C45.6073 70.044 45.1007 74.5397 41.5703 75.5803Z" fill="#4D4E59"/>
<path d="M58.4297 75.5803C59.2263 75.8153 60.081 75.9447 60.9973 75.9522C69.8963 76.0256 77.152 82.6225 77.152 90.9656V92.484C77.152 94.0462 78.5027 95.3125 80.1687 95.3125H81.4617C82.4137 95.3125 83.1857 94.5887 83.1857 93.6962V85.765C83.1857 77.4434 75.9893 70.7031 67.1133 70.7C63.9747 70.699 61.2117 69.184 59.6217 66.89C58.9807 67.4031 58.2947 67.8644 57.572 68.2681C54.393 70.044 54.8993 74.5397 58.4297 75.5803Z" fill="#2C2C33"/>
<path d="M58.4323 64.2859C53.123 66.3694 47.2887 66.5309 41.5677 64.2859C41.86 63.1494 41.8113 62.4131 41.8113 60.9684L41.8437 60.8937C47.033 62.9131 52.9567 62.9172 58.1563 60.8937L58.1887 60.9684C58.1887 62.4137 58.14 63.1497 58.4323 64.2859Z" fill="#F7C388"/>
<path d="M65.7547 5.55768C63.723 6.34093 63.2733 6.6169 62.34 6.47283C45.2417 3.83402 31.7776 12.2156 29.9356 28.5941C29.9033 28.8816 29.8246 29.1639 29.6887 29.4233C28.3774 31.9259 28.6106 33.7781 28.6384 36.8572C28.6674 40.0969 23.4603 40.3044 23.2858 37.0687C23.2748 36.8669 23.2791 37.3994 23.2791 28.4226C23.2101 25.4994 23.3524 15.1901 31.2954 8.01227C40.5313 -0.333317 55.1673 0.349524 65.7697 4.81424C66.1143 4.95968 66.1037 5.42233 65.7547 5.55768Z" fill="#4D4E59"/>
<path d="M45.1723 55.3259C48.6787 57.3815 45.9113 62.4259 42.0737 60.9819C34.1917 58.0165 28.6666 50.8122 28.6666 42.4091C28.6666 38.7175 28.6269 36.1109 28.6127 33.8453C28.5991 31.8166 29.2368 29.9316 30.3371 28.3611C31.7201 26.3871 35.059 27.2473 35.0773 29.8047C35.0917 32.0784 35.1313 34.6731 35.1313 38.3684C35.131 45.7416 39.266 51.8631 45.1723 55.3259Z" fill="#FFEBD2"/>
</g>
</g>
<defs>
<filter id="filter0_d" x="11.8143" y="-3.43755" width="86.3713" height="113.75" filterUnits="userSpaceOnUse" color-interpolation-filters="sRGB">
<feFlood flood-opacity="0" result="BackgroundImageFix"/>
<feColorMatrix in="SourceAlpha" type="matrix" values="0 0 0 0 0 0 0 0 0 0 0 0 0 0 0 0 0 0 127 0"/>
<feOffset dx="5" dy="5"/>
<feGaussianBlur stdDeviation="5"/>
<feColorMatrix type="matrix" values="0 0 0 0 0 0 0 0 0 0 0 0 0 0 0 0 0 0 0.25 0"/>
<feBlend mode="normal" in2="BackgroundImageFix" result="effect1_dropShadow"/>
<feBlend mode="normal" in="SourceGraphic" in2="effect1_dropShadow" result="shape"/>
</filter>
<clipPath id="clip0">
<rect width="100" height="100" fill="white"/>
</clipPath>
</defs>
</svg>
